<svg width="158" height="67" viewBox="0 0 158 67" fill="none" xmlns="http://www.w3.org/2000/svg">
<path d="M105.174 27.6083C105.957 28.4195 106.335 29.4051 106.302 30.5529H97.3701C97.3964 30.0054 97.5235 29.4903 97.7557 28.9873C97.9797 28.4905 98.2946 28.0525 98.6983 27.6732C99.1081 27.294 99.5966 26.9837 100.166 26.7465C100.737 26.5011 101.397 26.3855 102.154 26.3855C103.385 26.3855 104.391 26.7911 105.174 27.6083Z" fill="#EEEEEE"/>
<path d="M143.432 29.0137C142.489 30.0378 142.015 31.3843 142.015 33.0452C142.015 34.7081 142.489 36.0526 143.432 37.0767C144.381 38.1069 145.715 38.622 147.427 38.622C149.145 38.622 150.473 38.1069 151.422 37.0767C152.37 36.0526 152.845 34.7061 152.845 33.0452C152.845 31.3823 152.37 30.0378 151.422 29.0137C150.473 27.9835 149.145 27.4684 147.427 27.4684C145.715 27.4663 144.383 27.9814 143.432 29.0137ZM156.654 24.684C157.166 25.2316 157.615 25.8298 158 26.4868V0H92.2086V27.0222C92.7335 26.134 93.3814 25.335 94.1444 24.6394C95.2405 23.6214 96.5365 22.8487 98.0241 22.3012C99.5118 21.7597 101.102 21.4839 102.782 21.4839C104.346 21.4839 105.769 21.7618 107.045 22.3012C108.327 22.8487 109.411 23.6214 110.295 24.6394C111.179 25.6513 111.866 26.8681 112.346 28.2856C112.826 29.7092 113.071 31.293 113.071 33.0452V35.1765H97.3681C97.6366 36.4785 98.2199 37.5087 99.1243 38.2813C100.029 39.0479 101.145 39.4352 102.465 39.4352C103.581 39.4352 104.516 39.1898 105.287 38.6889C106.056 38.1921 106.724 37.5492 107.293 36.7624L112.031 40.2545C110.947 41.6457 109.583 42.7144 107.927 43.4748C106.266 44.2292 104.554 44.6085 102.778 44.6085C101.098 44.6085 99.5078 44.3306 98.0201 43.7912C96.5324 43.2437 95.2365 42.471 94.1404 41.4591C93.3834 40.7635 92.7355 39.9706 92.2046 39.0823V66.0904H157.996V39.3906C157.681 39.9706 157.322 40.5181 156.926 41.0271C156.066 42.1161 155.023 42.978 153.785 43.629C152.554 44.2799 151.157 44.6085 149.593 44.6085C148.176 44.6085 146.862 44.3894 145.642 43.9514C144.423 43.5134 143.424 42.7671 142.641 41.7024H142.552V54.3993H135.782V22.0294H142.013V24.9274H142.102C142.37 24.5339 142.723 24.1344 143.159 23.7289C143.596 23.3233 144.108 22.9501 144.692 22.6135C145.281 22.285 145.923 22.0153 146.609 21.8023C147.302 21.5894 148.038 21.4799 148.822 21.4799C150.451 21.4799 151.918 21.7638 153.246 22.3235C154.57 22.8812 155.711 23.666 156.654 24.684ZM132.687 27.9247C132.207 27.7705 131.732 27.661 131.264 27.584C130.802 27.5069 130.309 27.4684 129.803 27.4684C128.507 27.4684 127.481 27.6549 126.732 28.0159C125.981 28.3769 125.398 28.8859 124.994 29.5369C124.591 30.1878 124.328 30.9605 124.205 31.869C124.084 32.7775 124.025 33.7752 124.025 34.8642V44.063H117.255V22.0294H124.025V25.5662H124.114C124.839 24.2074 125.691 23.1833 126.686 22.506C127.679 21.8226 128.931 21.4819 130.43 21.4819C130.822 21.4819 131.214 21.5022 131.603 21.5265C131.995 21.559 132.354 21.6239 132.687 21.7131V27.9247Z" fill="#EEEEEE"/>
<path d="M23.0562 28.2857C22.5435 26.8945 21.8127 25.696 20.8701 24.684C19.9213 23.666 18.7869 22.8812 17.4587 22.3256C16.1385 21.7658 14.6629 21.4819 13.0339 21.4819C12.2507 21.4819 11.52 21.5914 10.8276 21.8044C10.1353 22.0173 9.49336 22.287 8.91 22.6155C8.32057 22.9502 7.80785 23.3233 7.37184 23.7309C6.93583 24.1365 6.58258 24.536 6.31411 24.9294H6.22529V22.0315H0V54.3994H6.76425V41.7025H6.85307C7.63627 42.7651 8.63547 43.5134 9.85469 43.9514C11.0739 44.3895 12.3941 44.6085 13.805 44.6085C15.3694 44.6085 16.7683 44.28 18.0057 43.629C19.237 42.978 20.2827 42.1162 21.1405 41.0272C22.0005 39.9382 22.6605 38.689 23.1228 37.2836C23.5911 35.8803 23.8212 34.4039 23.8212 32.8647C23.8192 31.2038 23.5709 29.6768 23.0562 28.2857ZM15.6319 37.0767C14.6831 38.1069 13.3549 38.622 11.6371 38.622C9.92534 38.622 8.59106 38.1069 7.64838 37.0767C6.69965 36.0526 6.22529 34.7061 6.22529 33.0452C6.22529 31.3823 6.69965 30.0378 7.64838 29.0137C8.59106 27.9835 9.92534 27.4684 11.6371 27.4684C13.3549 27.4684 14.6831 27.9835 15.6319 29.0137C16.5806 30.0378 17.0549 31.3843 17.0549 33.0452C17.0549 34.7081 16.5806 36.0526 15.6319 37.0767Z" fill="#EEEEEE"/>
<path d="M50.2564 28.2856C49.6226 26.8681 48.7627 25.6513 47.6605 24.6394C46.5644 23.6213 45.2685 22.8487 43.7808 22.3011C42.2931 21.7597 40.7025 21.4839 39.023 21.4839C37.3375 21.4839 35.7469 21.7617 34.2592 22.3011C32.7715 22.8487 31.4756 23.6213 30.3795 24.6394C29.2834 25.6513 28.4174 26.8681 27.7836 28.2856C27.1558 29.7092 26.8409 31.293 26.8409 33.0451C26.8409 34.7973 27.1558 36.3811 27.7836 37.8047C28.4174 39.2283 29.2834 40.439 30.3795 41.457C31.4756 42.4689 32.7715 43.2416 34.2592 43.7891C35.7469 44.3306 37.3375 44.6064 39.023 44.6064C40.7025 44.6064 42.2931 44.3286 43.7808 43.7891C45.2685 43.2416 46.5644 42.4689 47.6605 41.457C48.7627 40.439 49.6226 39.2283 50.2564 37.8047C50.8903 36.3811 51.2052 34.7973 51.2052 33.0451C51.2052 31.293 50.8903 29.7092 50.2564 28.2856ZM43.0178 37.0767C42.0691 38.1069 40.7348 38.622 39.023 38.622C37.3052 38.622 35.977 38.1069 35.0283 37.0767C34.0796 36.0526 33.6052 34.706 33.6052 33.0451C33.6052 31.3822 34.0796 30.0377 35.0283 29.0136C35.977 27.9834 37.3052 27.4683 39.023 27.4683C40.7348 27.4683 42.0691 27.9834 43.0178 29.0136C43.9605 30.0377 44.4349 31.3843 44.4349 33.0451C44.4349 34.708 43.9605 36.0526 43.0178 37.0767Z" fill="#EEEEEE"/>
<path d="M82.9756 22.0294L78.8658 35.8538H78.777L74.7176 22.0294H67.3175L63.5731 35.8538H63.4843L59.0151 22.0294H51.7947L59.8286 44.0589H66.6373L70.7027 29.4172H70.7915L75.3494 44.0589H82.0249L89.8347 22.0294H82.9756Z" fill="#EEEEEE"/>
<path d="M3.50828 61.7162C3.45782 61.5357 3.36698 61.3755 3.23981 61.2335C3.11063 61.0855 2.93905 60.9699 2.72104 60.8787C2.49698 60.7813 2.21438 60.7367 1.87526 60.7367H0V66.0965H0.718613V63.732H1.87324C2.21236 63.732 2.49496 63.6873 2.71902 63.59C2.93703 63.5008 3.11063 63.3771 3.2378 63.2351C3.36698 63.0932 3.4558 62.9329 3.50627 62.7525C3.55673 62.572 3.58297 62.3976 3.58297 62.2313C3.58499 62.0711 3.55875 61.8967 3.50828 61.7162ZM2.71902 62.6774C2.65443 62.793 2.56561 62.8762 2.45661 62.9411C2.3476 62.9999 2.22649 63.0445 2.09124 63.0627C1.94994 63.0891 1.80864 63.0952 1.66734 63.0952H0.718613V61.3694H1.66734C1.80864 61.3694 1.94994 61.3816 2.09124 61.4079C2.22649 61.4282 2.3476 61.4728 2.45661 61.5296C2.56561 61.5945 2.65443 61.6777 2.71902 61.7932C2.78362 61.9028 2.81591 62.0508 2.81591 62.2313C2.81389 62.4179 2.78362 62.5679 2.71902 62.6774Z" fill="#EEEEEE"/>
<path d="M10.111 62.3023C9.96972 61.9616 9.78401 61.6655 9.53976 61.4059C9.29551 61.1545 9.0008 60.9618 8.66168 60.8138C8.31449 60.6718 7.94307 60.6008 7.53935 60.6008C7.12958 60.6008 6.75615 60.6718 6.41703 60.8138C6.06983 60.9618 5.78319 61.1545 5.53895 61.4059C5.2947 61.6635 5.10293 61.9595 4.96163 62.3023C4.82639 62.643 4.75574 63.0181 4.75574 63.4176C4.75574 63.8171 4.82639 64.1842 4.96163 64.533C5.10293 64.8737 5.2947 65.1698 5.53895 65.4212C5.78319 65.6727 6.07185 65.8714 6.41703 66.0134C6.75615 66.1614 7.12958 66.2324 7.53935 66.2324C7.94307 66.2324 8.31449 66.1614 8.66168 66.0134C9.0008 65.8714 9.29551 65.6727 9.53976 65.4212C9.78401 65.1698 9.96972 64.8737 10.111 64.533C10.2463 64.1842 10.3169 63.8171 10.3169 63.4176C10.3169 63.0181 10.2463 62.645 10.111 62.3023ZM9.40654 64.241C9.30964 64.5046 9.17642 64.7297 9.00282 64.9244C8.82317 65.111 8.61122 65.2651 8.36899 65.3827C8.11869 65.4922 7.84416 65.551 7.54137 65.551C7.23455 65.551 6.958 65.4922 6.7077 65.3827C6.46345 65.2671 6.2515 65.113 6.07992 64.9244C5.90027 64.7317 5.76503 64.5066 5.67015 64.241C5.57326 63.9834 5.52885 63.7056 5.52885 63.4156C5.52885 63.1195 5.57326 62.8417 5.67015 62.5842C5.76704 62.3266 5.90027 62.1015 6.07992 61.9068C6.25352 61.7142 6.46547 61.558 6.7077 61.4485C6.958 61.3329 7.23253 61.2741 7.54137 61.2741C7.84214 61.2741 8.11869 61.3329 8.36899 61.4485C8.61324 61.558 8.82519 61.7121 9.00282 61.9068C9.17642 62.0995 9.30964 62.3246 9.40654 62.5842C9.50343 62.8417 9.54784 63.1195 9.54784 63.4156C9.54784 63.7076 9.50141 63.9834 9.40654 64.241Z" fill="#EEEEEE"/>
<path d="M17.6464 60.7367L16.4736 65.0197H16.4534L15.2039 60.7367H14.3702L13.1207 65.0197H13.1005L11.9277 60.7367H11.1708L12.7291 66.0965H13.4982L14.78 61.7223H14.7921L16.08 66.0965H16.849L18.4013 60.7367H17.6464Z" fill="#EEEEEE"/>
<path d="M20.4219 65.4151V63.6955H22.9492V63.012H20.4219V61.4201H23.141V60.7367H19.6973V66.0965H23.2742V65.4131H20.4219V65.4151Z" fill="#EEEEEE"/>
<path d="M27.0974 63.6488C27.2952 63.6285 27.4749 63.5778 27.6424 63.4886C27.8019 63.3994 27.9432 63.2899 28.0522 63.1601C28.1672 63.0303 28.25 62.8904 28.3146 62.7281C28.3731 62.574 28.4034 62.4057 28.4034 62.2313C28.4034 62.0711 28.3772 61.8967 28.3267 61.7162C28.2762 61.5357 28.1915 61.3755 28.0643 61.2335C27.9351 61.0855 27.7575 60.9699 27.5395 60.8787C27.3154 60.7813 27.0389 60.7367 26.6937 60.7367H24.8204V66.0965H25.5451V63.732H26.3465L27.705 66.0965H28.6093L27.0974 63.6488ZM26.4938 63.0952H25.5451V61.3694H26.4938C26.6291 61.3694 26.7704 61.3816 26.9097 61.4079C27.0449 61.4282 27.1721 61.4728 27.275 61.5296C27.384 61.5945 27.4728 61.6777 27.5374 61.7932C27.602 61.9028 27.6343 62.0508 27.6343 62.2313C27.6343 62.4179 27.602 62.5659 27.5374 62.6754C27.4728 62.791 27.384 62.8741 27.275 62.939C27.1721 62.9978 27.0449 63.0425 26.9097 63.0607C26.7704 63.0891 26.6291 63.0952 26.4938 63.0952Z" fill="#EEEEEE"/>
<path d="M36.7663 63.8109C36.631 63.6304 36.4716 63.4824 36.2798 63.3729C36.088 63.2634 35.8761 63.1802 35.646 63.1214C35.4219 63.0565 35.2099 62.9916 35.0182 62.9146C34.8204 62.8375 34.6589 62.7402 34.5317 62.6185C34.3965 62.5029 34.3339 62.3285 34.3339 62.0973C34.3339 62.0202 34.3541 61.929 34.3843 61.8337C34.4166 61.7363 34.4732 61.6471 34.5519 61.5639C34.6347 61.4869 34.7437 61.4159 34.8728 61.3652C35.0081 61.3145 35.1736 61.2821 35.3735 61.2821C35.5854 61.2821 35.7772 61.3267 35.9447 61.4119C36.1042 61.5011 36.2334 61.6106 36.3222 61.7526L36.9116 61.2172C36.7138 60.9657 36.4756 60.8055 36.2132 60.7203C35.9447 60.6433 35.6682 60.6047 35.3735 60.6047C35.0525 60.6047 34.778 60.6493 34.5519 60.7528C34.3218 60.8501 34.1361 60.9718 33.9867 61.1198C33.8393 61.2618 33.7364 61.422 33.6657 61.6025C33.6011 61.7769 33.5628 61.9432 33.5628 62.0993C33.5628 62.4481 33.6334 62.7239 33.7606 62.9308C33.8898 63.1376 34.0553 63.2978 34.2471 63.4195C34.4389 63.5412 34.6508 63.6325 34.8749 63.7034C35.105 63.7683 35.3169 63.8393 35.5087 63.9164C35.7005 63.9873 35.8619 64.0766 35.9952 64.1861C36.1244 64.2956 36.1869 64.4497 36.1869 64.6566C36.1869 64.8046 36.1546 64.9344 36.09 65.0439C36.0254 65.1595 35.9427 65.2507 35.8397 65.3278C35.7368 65.4049 35.6217 65.4576 35.4925 65.4961C35.3714 65.5347 35.2483 65.5549 35.1272 65.5549C34.9092 65.5549 34.6972 65.5103 34.4994 65.413C34.2935 65.3238 34.128 65.1737 33.9988 64.981L33.4033 65.4961C33.583 65.7476 33.8272 65.9342 34.134 66.0558C34.4348 66.1714 34.7618 66.2363 35.103 66.2363C35.3593 66.2363 35.6036 66.1978 35.8276 66.1207C36.0517 66.0437 36.2515 65.9402 36.4171 65.7983C36.5846 65.6563 36.7118 65.4819 36.8087 65.2771C36.9116 65.0703 36.956 64.833 36.956 64.5815C36.958 64.2489 36.8934 63.9975 36.7663 63.8109Z" fill="#EEEEEE"/>
<path d="M43.5871 62.3023C43.4458 61.9616 43.254 61.6655 43.0098 61.4059C42.7655 61.1545 42.4769 60.9618 42.1317 60.8138C41.7926 60.6718 41.4191 60.6008 41.0094 60.6008C40.6057 60.6008 40.2342 60.6718 39.887 60.8138C39.5479 60.9618 39.2532 61.1545 39.009 61.4059C38.7647 61.6635 38.579 61.9595 38.4377 62.3023C38.3025 62.643 38.2318 63.0181 38.2318 63.4176C38.2318 63.8171 38.3025 64.1842 38.4377 64.533C38.579 64.8737 38.7647 65.1698 39.009 65.4212C39.2532 65.6727 39.5479 65.8714 39.887 66.0134C40.2342 66.1614 40.6057 66.2324 41.0094 66.2324C41.4191 66.2324 41.7926 66.1614 42.1317 66.0134C42.4789 65.8714 42.7655 65.6727 43.0098 65.4212C43.254 65.1698 43.4458 64.8737 43.5871 64.533C43.7223 64.1842 43.793 63.8171 43.793 63.4176C43.793 63.0181 43.7223 62.645 43.5871 62.3023ZM42.8826 64.241C42.7857 64.5046 42.6525 64.7297 42.4728 64.9244C42.2992 65.111 42.0873 65.2651 41.8451 65.3827C41.5948 65.4922 41.3202 65.551 41.0114 65.551C40.7106 65.551 40.4341 65.4922 40.1838 65.3827C39.9395 65.2671 39.7276 65.113 39.5499 64.9244C39.3763 64.7317 39.2431 64.5066 39.1462 64.241C39.0493 63.9834 39.0049 63.7056 39.0049 63.4156C39.0049 63.1195 39.0493 62.8417 39.1462 62.5842C39.2431 62.3266 39.3763 62.1015 39.5499 61.9068C39.7296 61.7142 39.9415 61.558 40.1838 61.4485C40.4341 61.3329 40.7086 61.2741 41.0114 61.2741C41.3182 61.2741 41.5948 61.3329 41.8451 61.4485C42.0893 61.558 42.3013 61.7121 42.4728 61.9068C42.6525 62.0995 42.7877 62.3246 42.8826 62.5842C42.9795 62.8417 43.0239 63.1195 43.0239 63.4156C43.0239 63.7076 42.9795 63.9834 42.8826 64.241Z" fill="#EEEEEE"/>
<path d="M46.1265 65.4151V60.7367H45.4019V66.0965H48.5751V65.4131H46.1265V65.4151Z" fill="#EEEEEE"/>
<path d="M53.0845 60.7367V64.022C53.0845 64.1903 53.0583 64.3566 53.0139 64.537C52.9695 64.7175 52.8928 64.8859 52.7898 65.0339C52.6808 65.188 52.5456 65.3117 52.374 65.407C52.2064 65.5044 51.9965 65.549 51.7462 65.549C51.4899 65.549 51.2779 65.5044 51.1124 65.407C50.9388 65.3097 50.8056 65.188 50.6966 65.0339C50.5936 64.8859 50.5169 64.7175 50.4725 64.537C50.4281 64.3566 50.4018 64.1882 50.4018 64.022V60.7367H49.6832V64.1315C49.6832 64.4478 49.7337 64.7297 49.8366 64.9872C49.9456 65.2387 50.0869 65.4577 50.2727 65.6443C50.4584 65.8309 50.6764 65.9789 50.9327 66.0762C51.183 66.1797 51.4515 66.2304 51.7462 66.2304C52.0349 66.2304 52.3033 66.1797 52.5536 66.0762C52.81 65.9789 53.028 65.8309 53.2137 65.6443C53.3994 65.4577 53.5407 65.2387 53.6497 64.9872C53.7527 64.7297 53.8092 64.4458 53.8092 64.1315V60.7367H53.0845Z" fill="#EEEEEE"/>
<path d="M55.0909 60.7367V61.4201H56.8087V66.0965H57.5334V61.4201H59.2512V60.7367H55.0909Z" fill="#EEEEEE"/>
<path d="M60.5856 60.7367V66.0965H61.3102V60.7367H60.5856Z" fill="#EEEEEE"/>
<path d="M68.2864 62.3023C68.1512 61.9616 67.9594 61.6655 67.7152 61.4059C67.4709 61.1545 67.1762 60.9618 66.8371 60.8138C66.498 60.6718 66.1185 60.6008 65.7148 60.6008C65.305 60.6008 64.9316 60.6718 64.5924 60.8138C64.2533 60.9618 63.9586 61.1545 63.7144 61.4059C63.4701 61.6635 63.2783 61.9595 63.1431 62.3023C63.0018 62.643 62.9312 63.0181 62.9312 63.4176C62.9312 63.8171 63.0018 64.1842 63.1431 64.533C63.2783 64.8737 63.4701 65.1698 63.7144 65.4212C63.9586 65.6727 64.2533 65.8714 64.5924 66.0134C64.9316 66.1614 65.305 66.2324 65.7148 66.2324C66.1185 66.2324 66.498 66.1614 66.8371 66.0134C67.1762 65.8714 67.4709 65.6727 67.7152 65.4212C67.9594 65.1698 68.1512 64.8737 68.2864 64.533C68.4277 64.1842 68.4984 63.8171 68.4984 63.4176C68.4984 63.0181 68.4277 62.645 68.2864 62.3023ZM67.5799 64.241C67.483 64.5046 67.3498 64.7297 67.1762 64.9244C66.9966 65.111 66.7907 65.2651 66.5424 65.3827C66.2981 65.4922 66.0236 65.551 65.7148 65.551C65.4079 65.551 65.1314 65.4922 64.8872 65.3827C64.6368 65.2671 64.4249 65.113 64.2533 64.9244C64.0797 64.7317 63.9384 64.5066 63.8496 64.241C63.7527 63.9834 63.7022 63.7056 63.7022 63.4156C63.7022 63.1195 63.7527 62.8417 63.8496 62.5842C63.9384 62.3266 64.0797 62.1015 64.2533 61.9068C64.4269 61.7142 64.6389 61.558 64.8872 61.4485C65.1314 61.3329 65.4059 61.2741 65.7148 61.2741C66.0216 61.2741 66.2981 61.3329 66.5424 61.4485C66.7927 61.558 66.9986 61.7121 67.1762 61.9068C67.3498 62.0995 67.483 62.3246 67.5799 62.5842C67.6768 62.8417 67.7273 63.1195 67.7273 63.4156C67.7273 63.7076 67.6768 63.9834 67.5799 64.241Z" fill="#EEEEEE"/>
<path d="M74.0111 60.7367V65.1434H73.9909L71.0538 60.7367H70.1051V66.0965H70.8298V61.6898H70.8419L73.8112 66.0965H74.7337V60.7367H74.0111Z" fill="#EEEEEE"/>
<path d="M79.6085 63.8109C79.4733 63.6304 79.3138 63.4824 79.1221 63.3729C78.9303 63.2634 78.7184 63.1802 78.4882 63.1214C78.2642 63.0565 78.0522 62.9916 77.8605 62.9146C77.6687 62.8375 77.5012 62.7402 77.374 62.6185C77.2448 62.5029 77.1762 62.3285 77.1762 62.0973C77.1762 62.0202 77.1963 61.929 77.2266 61.8337C77.2589 61.7363 77.3154 61.6471 77.3942 61.5639C77.4769 61.4869 77.5859 61.4159 77.7151 61.3652C77.8504 61.3145 78.0159 61.2821 78.2218 61.2821C78.4277 61.2821 78.6194 61.3267 78.787 61.4119C78.9465 61.5011 79.0756 61.6106 79.1725 61.7526L79.7559 61.2172C79.5581 60.9657 79.3199 60.8055 79.0575 60.7203C78.789 60.6433 78.5125 60.6047 78.2238 60.6047C77.8968 60.6047 77.6283 60.6493 77.3962 60.7528C77.1661 60.8501 76.9804 60.9718 76.831 61.1198C76.6897 61.2618 76.5807 61.422 76.51 61.6025C76.4454 61.7769 76.4131 61.9432 76.4131 62.0993C76.4131 62.4481 76.4777 62.7239 76.6049 62.9308C76.7341 63.1376 76.8996 63.2978 77.0914 63.4195C77.2831 63.5412 77.4951 63.6325 77.7252 63.7034C77.9493 63.7683 78.1612 63.8393 78.353 63.9164C78.5448 63.9873 78.7123 64.0766 78.8395 64.1861C78.9687 64.2956 79.0373 64.4497 79.0373 64.6566C79.0373 64.8046 78.9989 64.9344 78.9343 65.0439C78.8697 65.1595 78.787 65.2507 78.684 65.3278C78.5811 65.4049 78.466 65.4576 78.3449 65.4961C78.2157 65.5347 78.0946 65.5549 77.9735 65.5549C77.7555 65.5549 77.5496 65.5103 77.3457 65.413C77.1398 65.3238 76.9743 65.1737 76.8451 64.981L76.2496 65.4961C76.4293 65.7476 76.6735 65.9342 76.9804 66.0558C77.2872 66.1714 77.6081 66.2363 77.9493 66.2363C78.2056 66.2363 78.4499 66.1978 78.6739 66.1207C78.898 66.0437 79.0978 65.9402 79.2634 65.7983C79.4309 65.6563 79.5581 65.4819 79.661 65.2771C79.7579 65.0703 79.8023 64.833 79.8023 64.5815C79.8023 64.2489 79.7377 63.9975 79.6085 63.8109Z" fill="#EEEEEE"/>
</svg>
