<svg width="27" height="28" viewBox="0 0 27 28" fill="none" xmlns="http://www.w3.org/2000/svg">
<g clip-path="url(#clip0_776_4176)">
<path d="M10.8 0.443359C4.8 0.443359 0 5.24336 0 11.2434C0 14.5434 2.4 18.1434 5.1 21.4434C7.5 24.7434 10.2 27.1434 10.2 27.4434C10.5 27.4434 11.1 27.4434 11.4 27.1434C11.7 26.8434 11.7 26.2434 11.4 25.9434C11.1 25.9434 8.7 23.2434 6.3 20.2434C3.9 17.2434 1.5 13.3434 1.5 11.2434C1.5 6.14336 5.7 2.24336 10.5 2.24336C15.6 2.24336 19.5 6.44336 19.5 11.2434C19.5 11.5434 19.5 12.1434 19.2 12.4434C19.2 12.7434 19.5 13.3434 19.8 13.3434C20.1 13.3434 21 13.0434 21.3 12.7434C21.3 12.1434 21.6 11.5434 21.6 11.2434C21.3 5.24336 16.5 0.443359 10.8 0.443359ZM10.8 5.54336C8.1 5.54336 6 7.64336 6 10.0434C6 12.4434 8.1 14.8434 10.8 14.8434C13.5 14.8434 15.6 12.7434 15.6 10.0434C15.6 7.34336 13.2 5.54336 10.8 5.54336ZM10.8 7.04336C12.6 7.04336 14.1 8.54336 14.1 10.0434C14.1 11.8434 12.6 13.3434 10.8 13.3434C9 13.3434 7.8 11.8434 7.8 10.0434C7.5 8.24336 9 7.04336 10.8 7.04336ZM18.3 13.3434H18L10.2 20.8434C9.9 21.1434 9.6 21.4434 9.9 21.7434C10.2 22.0434 10.8 22.0434 11.1 21.7434L12 21.1434V26.8434C12 27.1434 12.6 27.4434 12.9 27.4434H24C24.3 27.4434 24.9 27.1434 24.9 26.5434V21.1434L25.8 22.0434C26.1 22.3434 26.7 22.3434 27 22.0434C27 21.4434 27 21.1434 26.7 20.8434L18.9 13.3434C18.9 13.3434 18.6 13.3434 18.3 13.3434ZM18.3 15.1434L23.1 19.6434V25.9434H21V21.4434C21 21.1434 20.7 20.5434 20.1 20.5434H16.8C16.2 20.8434 15.9 21.1434 15.9 21.4434V25.6434H13.8V19.6434L18.3 15.1434ZM17.4 22.3434H19.2V25.9434H17.4V22.3434Z" fill="white"/>
</g>
<defs>
<clipPath id="clip0_776_4176">
<rect width="27" height="27" fill="white" transform="translate(0 0.443359)"/>
</clipPath>
</defs>
</svg>
