<svg width="95" height="98" viewBox="0 0 95 98" fill="none" xmlns="http://www.w3.org/2000/svg">
<path d="M47.2262 0.404395C44.9505 0.475676 42.7914 1.43375 41.2052 3.07641C39.619 4.71906 38.7299 6.91752 38.7256 9.20732V17.8453L2.19427 34.9774C1.68497 35.2165 1.25407 35.5968 0.952179 36.0736C0.65029 36.5504 0.48995 37.104 0.48999 37.6692V40.2806C0.490479 40.7105 0.583772 41.1351 0.763423 41.5252C0.943074 41.9154 1.2048 42.2618 1.53052 42.5402C1.85624 42.8187 2.23819 43.0226 2.64998 43.1381C3.06177 43.2536 3.49358 43.2779 3.91558 43.2091L38.7256 37.5337V47.7759H16.4055C15.6227 47.7757 14.8719 48.088 14.3179 48.6443C13.764 49.2005 13.4523 49.9553 13.4514 50.7425V94.2289C13.4513 94.619 13.5276 95.0054 13.676 95.3659C13.8245 95.7264 14.0421 96.054 14.3164 96.3299C14.5907 96.6058 14.9165 96.8247 15.2749 96.9739C15.6334 97.1232 16.0176 97.2001 16.4055 97.2H78.594C78.982 97.2001 79.3662 97.1232 79.7247 96.9739C80.0831 96.8247 80.4088 96.6058 80.6832 96.3299C80.9575 96.054 81.1751 95.7264 81.3235 95.3659C81.472 95.0054 81.5483 94.619 81.5482 94.2289V50.7425C81.5473 49.9553 81.2356 49.2005 80.6816 48.6443C80.1277 48.088 79.3768 47.7757 78.594 47.7759H56.2739V37.5337L91.0799 43.2091C91.5022 43.2785 91.9345 43.2548 92.3468 43.1396C92.7591 43.0244 93.1415 42.8206 93.4677 42.542C93.7939 42.2635 94.056 41.917 94.2359 41.5265C94.4158 41.136 94.5092 40.7109 94.5096 40.2806V37.6692C94.5093 37.1035 94.3483 36.5497 94.0456 36.0729C93.7429 35.596 93.3111 35.2158 92.801 34.9774L56.2739 17.8453V9.20732C56.2718 8.02674 56.034 6.85853 55.5748 5.77202C55.1156 4.68551 54.4443 3.70289 53.6006 2.88203C52.757 2.06117 51.7581 1.41894 50.6631 0.993354C49.5682 0.567765 48.3995 0.367506 47.2262 0.404395ZM47.7144 1.86017C49.615 1.91605 51.419 2.71458 52.7437 4.08634C54.0684 5.45811 54.8094 7.29508 54.8095 9.20732V47.7759H40.1901V9.20732C40.1901 8.2238 40.3864 7.25034 40.7673 6.34449C41.1482 5.43863 41.706 4.61895 42.4076 3.93384C43.1092 3.24872 43.9404 2.71218 44.852 2.356C45.7635 1.99983 46.7369 1.83116 47.7144 1.86017ZM38.7256 19.4706V36.0396L3.68418 41.7574C3.47117 41.7926 3.25308 41.7809 3.04505 41.7229C2.83703 41.6649 2.64404 41.562 2.47948 41.4215C2.31492 41.2809 2.18272 41.1062 2.09207 40.9091C2.00141 40.7121 1.95446 40.4977 1.95447 40.2806V37.6692C1.95482 37.3847 2.03577 37.1062 2.18783 36.8663C2.3399 36.6265 2.55678 36.4353 2.81308 36.3149L38.7256 19.4706ZM56.2739 19.4706L92.1824 36.3149C92.4387 36.4353 92.6555 36.6265 92.8075 36.8663C92.9596 37.1062 93.0405 37.3848 93.0408 37.6692V40.2806C93.0407 40.4973 92.9939 40.7112 92.9034 40.9079C92.813 41.1045 92.6812 41.2792 92.5172 41.4197C92.3531 41.5601 92.1607 41.6631 91.9532 41.7214C91.7457 41.7797 91.5281 41.792 91.3154 41.7574L56.2739 36.0396V19.4706ZM16.4055 49.2487H78.594C78.9878 49.2494 79.3652 49.4069 79.6437 49.6869C79.9221 49.9669 80.0789 50.3465 80.0796 50.7425V60.8366C80.0797 61.763 79.7882 62.6656 79.2469 63.4152C78.7057 64.1648 77.9424 64.7229 77.0664 65.0095L54.4979 72.3947V71.4297C54.497 70.6431 54.186 69.8891 53.6329 69.3329C53.0799 68.7767 52.3301 68.4638 51.5481 68.4628H43.4515C42.6687 68.4626 41.9178 68.7751 41.3638 69.3314C40.8099 69.8877 40.4982 70.6424 40.4974 71.4297V72.3947L17.9288 65.0095C17.0529 64.7229 16.2896 64.1648 15.7483 63.4152C15.2071 62.6656 14.9156 61.763 14.9156 60.8366V50.7425C14.9164 50.3458 15.0738 49.9655 15.3531 49.6854C15.6325 49.4053 16.011 49.2483 16.4055 49.2487ZM14.9156 64.7258C15.6054 65.507 16.4902 66.0887 17.4785 66.4105L40.4974 73.9436V76.4195C40.4972 76.8097 40.5736 77.196 40.722 77.5566C40.8704 77.9171 41.088 78.2446 41.3624 78.5206C41.6367 78.7965 41.9624 79.0153 42.3209 79.1646C42.6793 79.3139 43.0635 79.3908 43.4515 79.3907H51.5481C52.3309 79.3897 53.0813 79.0762 53.6344 78.519C54.1876 77.9619 54.4981 77.2068 54.4979 76.4195V73.9436L77.521 66.4105C78.5078 66.088 79.3911 65.5064 80.0796 64.7258V94.2289C80.08 94.6256 79.9237 95.0063 79.6452 95.2873C79.3666 95.5682 78.9885 95.7263 78.594 95.727H16.4055C16.2098 95.7272 16.016 95.6888 15.8352 95.6136C15.6543 95.5384 15.49 95.4279 15.3516 95.2888C15.2132 95.1496 15.1035 94.9845 15.0287 94.8026C14.9539 94.6207 14.9155 94.4257 14.9156 94.2289L14.9156 64.7258ZM43.4515 69.9359H51.5481C51.9418 69.9366 52.3193 70.0941 52.5977 70.3741C52.8762 70.6541 53.0329 71.0337 53.0336 71.4297V76.4195C53.0341 76.8163 52.8778 77.1969 52.5992 77.4779C52.3207 77.7588 51.9426 77.9169 51.5481 77.9176H43.4515C43.2558 77.9178 43.062 77.8794 42.8812 77.8042C42.7004 77.729 42.5361 77.6186 42.3977 77.4794C42.2593 77.3402 42.1496 77.1748 42.0748 76.993C42 76.8111 41.9616 76.6163 41.9618 76.4195V71.4297C41.9625 71.033 42.1199 70.6527 42.3992 70.3726C42.6785 70.0924 43.057 69.9355 43.4515 69.9359Z" fill="white"/>
</svg>
