<svg width="70" height="94" viewBox="0 0 70 94" fill="none" xmlns="http://www.w3.org/2000/svg">
<g clip-path="url(#clip0_774_61)">
<path d="M52.6001 11.2C52.6001 10.1 51.7001 9.20001 50.6001 9.20001H18.6001C17.5001 9.20001 16.6001 10.1 16.6001 11.2V27.9C16.6001 29 17.5001 29.9 18.6001 29.9H50.6001C51.7001 29.9 52.6001 29 52.6001 27.9V11.2ZM48.6001 25.9H20.6001V13.2H48.6001V25.9Z" fill="white"/>
<path d="M67.2 0H2C0.9 0 0 0.9 0 2V92C0 93.1 0.9 94 2 94H66.7C67.8 94 68.7 93.1 68.7 92C68.7 90.9 67.8 90 66.7 90H18.2H4V4H14.2H65.2V90H61.7C60.6 90 59.7 90.9 59.7 92C59.7 93.1 60.6 94 61.7 94H67.2C68.3 94 69.2 93.1 69.2 92V2C69.2 0.9 68.3 0 67.2 0Z" fill="white"/>
</g>
<defs>
<clipPath id="clip0_774_61">
<rect width="69.2" height="94" fill="white"/>
</clipPath>
</defs>
</svg>
