<svg width="73" height="100" viewBox="0 0 73 100" fill="none" xmlns="http://www.w3.org/2000/svg">
<path d="M48.4779 50.7027V4.07985C48.4779 1.83177 46.6393 0 44.3764 0H4.34942C2.09055 0 0.25 1.82974 0.25 4.07985V72.2594C0.25 74.5096 2.08851 76.3413 4.34942 76.3413H22.7142C23.2549 89.4765 34.1309 100 47.4576 100C61.1291 100 72.25 88.9322 72.25 75.3259C72.252 62.0608 61.676 51.2388 48.4779 50.7027ZM11.2729 2.03079H37.459V4.9734C37.459 6.10251 36.5347 7.02246 35.3981 7.02246H13.3318C12.1973 7.02246 11.2729 6.10251 11.2729 4.9734V2.03079ZM2.29053 72.2594V4.07985C2.29053 2.95073 3.21488 2.03079 4.34942 2.03079H9.2324V4.9734C9.2324 7.22148 11.0709 9.05325 13.3318 9.05325H35.3981C37.659 9.05325 39.4995 7.22351 39.4995 4.9734V2.03079H44.3784C45.515 2.03079 46.4394 2.95073 46.4394 4.07985V50.7027C33.584 51.2266 23.2427 61.5146 22.7162 74.3105H4.35146C3.21489 74.3105 2.29053 73.3906 2.29053 72.2594ZM47.4576 97.9692C34.9104 97.9692 24.7037 87.8112 24.7037 75.3259C24.7037 62.8407 34.9104 52.6827 47.4576 52.6827C60.0028 52.6827 70.2095 62.8407 70.2095 75.3259C70.2095 87.8112 60.0048 97.9692 47.4576 97.9692Z" fill="white"/>
<path d="M58.7891 63.1502C58.3305 62.8649 57.7152 62.9967 57.4194 63.4553L44.0366 84.408L36.972 76.8484C36.5988 76.4469 35.9715 76.4252 35.5686 76.7953C35.1656 77.1653 35.1418 77.7892 35.515 78.1867L43.455 86.6851C43.4847 86.7166 43.5225 86.7264 43.5542 86.754C43.5899 86.7835 43.6118 86.8229 43.6535 86.8485C43.6733 86.8603 43.6951 86.8563 43.713 86.8662C43.8599 86.9469 44.0187 87 44.1834 87C44.3284 87 44.4713 86.9587 44.6043 86.8937C44.646 86.876 44.6777 86.8504 44.7154 86.8268C44.7631 86.7953 44.8167 86.7776 44.8583 86.7382C44.9 86.6989 44.9199 86.6497 44.9536 86.6064C44.9755 86.5808 45.0052 86.569 45.0231 86.5434L59.0967 64.5102C59.3885 64.0497 59.2516 63.4435 58.7891 63.1502Z" fill="white"/>
</svg>
