<svg width="83" height="83" viewBox="0 0 83 83" fill="none" xmlns="http://www.w3.org/2000/svg">
<path d="M11.25 53C11.95 53 12.5 52.4525 12.5 51.7556V6.95557C12.5 4.8898 14.175 3.22224 16.25 3.22224H47.5V19.4C47.5 22.8347 50.3 25.6222 53.75 25.6222H70V51.7556C70 52.4525 70.55 53 71.25 53C71.95 53 72.5 52.4525 72.5 51.7556V24.3778C72.5 24.3778 72.5 24.2782 72.475 24.2036C72.475 24.1538 72.475 24.104 72.45 24.0542C72.45 24.0045 72.45 23.9547 72.425 23.9049C72.375 23.7556 72.275 23.6062 72.15 23.5067L49.625 1.10668C49.625 1.10668 49.375 0.907573 49.225 0.832906C49.175 0.832906 49.125 0.832906 49.05 0.808017C49 0.808017 48.95 0.808017 48.9 0.783129C48.85 0.783129 48.8 0.75824 48.725 0.75824H16.225C12.775 0.75824 9.975 3.5458 9.975 6.98046V51.7805C9.975 52.4774 10.525 53.0249 11.225 53.0249L11.25 53ZM68.225 23.1334H53.75C51.675 23.1334 50 21.4658 50 19.4V4.98935L68.225 23.1334ZM20 36.8222C20 36.1254 20.55 35.5778 21.25 35.5778H46.25C46.95 35.5778 47.5 36.1254 47.5 36.8222C47.5 37.5191 46.95 38.0667 46.25 38.0667H21.25C20.55 38.0667 20 37.5191 20 36.8222ZM20 24.3778C20 23.6809 20.55 23.1334 21.25 23.1334H38.75C39.45 23.1334 40 23.6809 40 24.3778C40 25.0747 39.45 25.6222 38.75 25.6222H21.25C20.55 25.6222 20 25.0747 20 24.3778ZM78.75 57.9778H60.3C58.875 57.9778 57.575 58.7742 56.95 60.0436L54.025 65.8676C53.375 67.1369 52.1 67.9333 50.675 67.9333H31.85C30.425 67.9333 29.125 67.1369 28.5 65.8676L25.575 60.0436C24.925 58.7742 23.65 57.9778 22.225 57.9778H3.75C1.675 57.9778 0 59.6454 0 61.7111V76.6445C0 80.0791 2.8 82.8667 6.25 82.8667H76.25C79.7 82.8667 82.5 80.0791 82.5 76.6445V61.7111C82.5 59.6454 80.825 57.9778 78.75 57.9778ZM80 76.6445C80 78.7102 78.325 80.3778 76.25 80.3778H6.25C4.175 80.3778 2.5 78.7102 2.5 76.6445V61.7111C2.5 61.0142 3.05 60.4667 3.75 60.4667H22.2C22.675 60.4667 23.1 60.7405 23.325 61.1636L26.25 66.9876C27.325 69.1031 29.45 70.4222 31.85 70.4222H50.675C53.05 70.4222 55.2 69.1031 56.275 66.9876L59.2 61.1636C59.4 60.7405 59.85 60.4667 60.325 60.4667H78.775C79.475 60.4667 80.025 61.0142 80.025 61.7111V76.6445H80Z" fill="white"/>
</svg>
