<svg width="86" height="90" viewBox="0 0 86 90" fill="none" xmlns="http://www.w3.org/2000/svg">
<path fill-rule="evenodd" clip-rule="evenodd" d="M31.7999 77.4H2.47388V82.5C2.48822 83.1809 2.65057 83.8504 2.94966 84.4623C3.24875 85.0741 3.67741 85.6135 4.20588 86.043C5.44037 87.0697 7.00037 87.6228 8.60588 87.603H77.3929C78.9984 87.623 80.5585 87.0698 81.7929 86.043C82.3215 85.6136 82.7504 85.0742 83.0496 84.4624C83.3489 83.8506 83.5114 83.1809 83.5259 82.5V77.4H54.1999L52.9749 80.3C52.8864 80.5215 52.7336 80.7114 52.536 80.8451C52.3385 80.9788 52.1054 81.0502 51.8669 81.05H34.1669C33.9273 81.0556 33.6916 80.9889 33.4905 80.8587C33.2893 80.7285 33.1319 80.5408 33.0389 80.32L31.7999 77.4ZM14.6509 24.173V1.2C14.6509 0.88174 14.7773 0.576516 15.0024 0.351472C15.2274 0.126428 15.5326 0 15.8509 0H62.7999C62.9575 0 63.1135 0.0310387 63.2591 0.0913444C63.4047 0.15165 63.537 0.240042 63.6484 0.351472C63.7598 0.462902 63.8482 0.595189 63.9085 0.74078C63.9688 0.886371 63.9999 1.04241 63.9999 1.2V24.173H80.6679C80.9861 24.173 81.2914 24.2994 81.5164 24.5245C81.7414 24.7495 81.8679 25.0547 81.8679 25.373V75H84.7259C85.0441 75 85.3494 75.1264 85.5744 75.3515C85.7995 75.5765 85.9259 75.8817 85.9259 76.2V82.5C85.9119 83.5266 85.6743 84.5378 85.2296 85.4631C84.7849 86.3885 84.1438 87.2058 83.3509 87.858C81.6833 89.2587 79.5706 90.0183 77.3929 90H8.60688C6.43067 90.0176 4.31953 89.2585 2.65288 87.859C1.85987 87.2067 1.21865 86.3892 0.773931 85.4637C0.329206 84.5381 0.0916713 83.5268 0.0778809 82.5V76.2C0.0778809 76.0424 0.10892 75.8864 0.169225 75.7408C0.229531 75.5952 0.317922 75.4629 0.429353 75.3515C0.540783 75.24 0.67307 75.1516 0.818661 75.0913C0.964251 75.031 1.12029 75 1.27788 75H4.13588V25.371C4.13588 25.0527 4.26231 24.7475 4.48735 24.5225C4.7124 24.2974 5.01762 24.171 5.33588 24.171L14.6509 24.173ZM68.9509 52.362H63.9939V63.592C63.997 64.2487 64.2594 64.8775 64.7238 65.3418C65.1882 65.806 65.8172 66.0681 66.4739 66.071C67.1305 66.0684 67.7596 65.8063 68.2239 65.342C68.6882 64.8777 68.9502 64.2487 68.9529 63.592V52.362H68.9509ZM62.2799 66.071C61.8335 65.3212 61.5982 64.4646 61.5989 63.592V51.164C61.5989 51.144 61.5989 51.124 61.5989 51.104C61.5989 51.084 61.5989 51.063 61.5989 51.043V2.4H17.0469V64.3C17.049 64.7699 17.2366 65.2198 17.5688 65.5521C17.901 65.8843 18.351 66.0719 18.8209 66.074L62.2799 66.071ZM63.9939 49.971V26.571H79.4709V75H53.4069C53.1721 75.0009 52.9428 75.0706 52.7473 75.2006C52.5517 75.3305 52.3986 75.5149 52.3069 75.731L51.0719 78.651H34.9279L33.7339 75.829C33.6556 75.5881 33.503 75.3781 33.298 75.2292C33.0931 75.0803 32.8462 75 32.5929 75H6.52888V26.568H14.6509V64.3C14.6533 65.4052 15.0934 66.4645 15.8749 67.246C16.6564 68.0275 17.7157 68.4676 18.8209 68.47H66.4739C67.7659 68.4671 69.0042 67.9525 69.9178 67.0389C70.8314 66.1253 71.346 64.887 71.3489 63.595V51.164C71.3489 50.8457 71.2225 50.5405 70.9974 50.3155C70.7724 50.0904 70.4671 49.964 70.1489 49.964L63.9939 49.971ZM28.7569 24.482V23.748C29.4176 23.5655 30.0289 23.2371 30.5459 22.787C30.9705 22.4256 31.3125 21.9771 31.5485 21.4719C31.7846 20.9667 31.9092 20.4166 31.9139 19.859C31.9139 16.667 29.8199 16.233 27.7309 15.8C26.6099 15.567 25.4909 15.335 25.4909 14.12C25.4956 13.9033 25.5467 13.6902 25.6407 13.4949C25.7347 13.2997 25.8695 13.1268 26.0359 12.988C26.4665 12.6381 27.0045 12.4471 27.5594 12.4471C28.1143 12.4471 28.6522 12.6381 29.0829 12.988C29.2495 13.1267 29.3843 13.2995 29.4783 13.4948C29.5724 13.6901 29.6234 13.9033 29.6279 14.12C29.6279 14.4383 29.7543 14.7435 29.9794 14.9685C30.2044 15.1936 30.5096 15.32 30.8279 15.32C31.1461 15.32 31.4514 15.1936 31.6764 14.9685C31.9015 14.7435 32.0279 14.4383 32.0279 14.12C32.0233 13.5623 31.8987 13.0121 31.6624 12.5068C31.4262 12.0016 31.0839 11.5531 30.6589 11.192C30.1127 10.7163 29.4616 10.3767 28.7589 10.201V9.501C28.7695 9.33723 28.7464 9.17304 28.691 9.01856C28.6356 8.86408 28.5491 8.72261 28.4369 8.60288C28.3246 8.48315 28.189 8.38772 28.0384 8.32248C27.8879 8.25724 27.7255 8.22358 27.5614 8.22358C27.3973 8.22358 27.2349 8.25724 27.0843 8.32248C26.9337 8.38772 26.7981 8.48315 26.6859 8.60288C26.5737 8.72261 26.4872 8.86408 26.4318 9.01856C26.3764 9.17304 26.3533 9.33723 26.3639 9.501V10.2C25.6613 10.3759 25.0102 10.7155 24.4639 11.191C24.0397 11.5528 23.6984 12.0016 23.463 12.507C23.2277 13.0124 23.1038 13.5625 23.0999 14.12C23.0999 17.277 25.1759 17.707 27.2579 18.139C28.3889 18.374 29.5229 18.609 29.5229 19.859C29.5182 20.0755 29.4671 20.2885 29.3731 20.4836C29.279 20.6787 29.1443 20.8514 28.9779 20.99C28.5472 21.3399 28.0093 21.5309 27.4544 21.5309C26.8995 21.5309 26.3615 21.3399 25.9309 20.99C25.7643 20.8515 25.6295 20.6789 25.5354 20.4837C25.4414 20.2886 25.3904 20.0756 25.3859 19.859C25.3859 19.5407 25.2595 19.2355 25.0344 19.0105C24.8094 18.7854 24.5041 18.659 24.1859 18.659C23.8676 18.659 23.5624 18.7854 23.3374 19.0105C23.1123 19.2355 22.9859 19.5407 22.9859 19.859C22.9906 20.4167 23.1153 20.9669 23.3515 21.4721C23.5877 21.9773 23.9299 22.4258 24.3549 22.787C24.9298 23.2855 25.6194 23.6335 26.3619 23.8V24.478C26.3513 24.6418 26.3744 24.806 26.4298 24.9604C26.4852 25.1149 26.5717 25.2564 26.6839 25.3761C26.7961 25.4958 26.9317 25.5913 27.0823 25.6565C27.2329 25.7218 27.3953 25.7554 27.5594 25.7554C27.7235 25.7554 27.8859 25.7218 28.0364 25.6565C28.187 25.5913 28.3226 25.4958 28.4349 25.3761C28.5471 25.2564 28.6336 25.1149 28.689 24.9604C28.7444 24.806 28.7675 24.6418 28.7569 24.478V24.482ZM37.0359 15.766H55.0719C55.2356 15.7766 55.3998 15.7535 55.5543 15.6981C55.7088 15.6427 55.8503 15.5562 55.97 15.444C56.0897 15.3317 56.1852 15.1961 56.2504 15.0456C56.3156 14.895 56.3493 14.7326 56.3493 14.5685C56.3493 14.4044 56.3156 14.242 56.2504 14.0914C56.1852 13.9409 56.0897 13.8053 55.97 13.693C55.8503 13.5808 55.7088 13.4943 55.5543 13.4389C55.3998 13.3835 55.2356 13.3604 55.0719 13.371H37.0359C36.8721 13.3604 36.7079 13.3835 36.5534 13.4389C36.399 13.4943 36.2575 13.5808 36.1378 13.693C36.018 13.8053 35.9226 13.9409 35.8574 14.0914C35.7921 14.242 35.7585 14.4044 35.7585 14.5685C35.7585 14.7326 35.7921 14.895 35.8574 15.0456C35.9226 15.1961 36.018 15.3317 36.1378 15.444C36.2575 15.5562 36.399 15.6427 36.5534 15.6981C36.7079 15.7535 36.8721 15.7766 37.0359 15.766ZM37.0359 22.828H55.0719C55.2356 22.8386 55.3998 22.8155 55.5543 22.7601C55.7088 22.7047 55.8503 22.6182 55.97 22.506C56.0897 22.3937 56.1852 22.2581 56.2504 22.1076C56.3156 21.957 56.3493 21.7946 56.3493 21.6305C56.3493 21.4664 56.3156 21.304 56.2504 21.1534C56.1852 21.0029 56.0897 20.8673 55.97 20.755C55.8503 20.6428 55.7088 20.5563 55.5543 20.5009C55.3998 20.4455 55.2356 20.4224 55.0719 20.433H37.0359C36.8721 20.4224 36.7079 20.4455 36.5534 20.5009C36.399 20.5563 36.2575 20.6428 36.1378 20.755C36.018 20.8673 35.9226 21.0029 35.8574 21.1534C35.7921 21.304 35.7585 21.4664 35.7585 21.6305C35.7585 21.7946 35.7921 21.957 35.8574 22.1076C35.9226 22.2581 36.018 22.3937 36.1378 22.506C36.2575 22.6182 36.399 22.7047 36.5534 22.7601C36.7079 22.8155 36.8721 22.8386 37.0359 22.828ZM49.7689 29.89H55.0689C55.3871 29.89 55.6924 29.7636 55.9174 29.5385C56.1425 29.3135 56.2689 29.0083 56.2689 28.69C56.2689 28.3717 56.1425 28.0665 55.9174 27.8415C55.6924 27.6164 55.3871 27.49 55.0689 27.49H49.7689C49.4506 27.49 49.1454 27.6164 48.9204 27.8415C48.6953 28.0665 48.5689 28.3717 48.5689 28.69C48.5689 29.0083 48.6953 29.3135 48.9204 29.5385C49.1454 29.7636 49.4506 29.89 49.7689 29.89ZM24.7439 29.89H45.0549C45.3731 29.89 45.6784 29.7636 45.9034 29.5385C46.1285 29.3135 46.2549 29.0083 46.2549 28.69C46.2549 28.3717 46.1285 28.0665 45.9034 27.8415C45.6784 27.6164 45.3731 27.49 45.0549 27.49H24.7439C24.4256 27.49 24.1204 27.6164 23.8954 27.8415C23.6703 28.0665 23.5439 28.3717 23.5439 28.69C23.5439 29.0083 23.6703 29.3135 23.8954 29.5385C24.1204 29.7636 24.4256 29.89 24.7439 29.89Z" fill="white"/>
</svg>
