<svg width="65" height="90" viewBox="0 0 65 90" fill="none" xmlns="http://www.w3.org/2000/svg">
<path d="M62.6632 15.528H52.4008V1.79997C52.4008 1.34877 52.1896 0.935974 51.8248 0.657574C51.4792 0.398374 50.9992 0.321574 50.5768 0.455974L1.90481 15.5856C1.89521 15.6048 1.88562 15.6048 1.84722 15.6144C1.77042 15.6528 1.68402 15.7104 1.57842 15.7584C1.51122 15.8064 1.45361 15.8448 1.38641 15.9024C1.31921 15.9696 1.27122 16.0464 1.20402 16.1136C1.15602 16.1904 1.10802 16.2576 1.06002 16.3344C1.03122 16.4112 1.01202 16.4976 1.00242 16.584C0.964015 16.68 0.944815 16.7664 0.935215 16.872C0.935215 16.8912 0.916016 16.9104 0.916016 16.9392V88.1904C0.916016 88.9776 1.54962 89.6016 2.33682 89.6016H62.6536C63.4408 89.6016 64.0744 88.9776 64.0744 88.1904V16.9392C64.084 16.1616 63.4504 15.528 62.6632 15.528ZM49.5688 15.528H11.6488L49.5688 3.73917V15.528ZM61.252 86.7792H3.75762V18.36H61.252V86.7792Z" fill="white"/>
<path d="M43.5496 74.52H21.4696C20.6824 74.52 20.0488 75.144 20.0488 75.9216C20.0488 76.7184 20.6824 77.3424 21.4696 77.3424H43.5592C44.3464 77.3424 44.9608 76.7184 44.9608 75.9216C44.9608 75.1536 44.3368 74.52 43.5496 74.52Z" fill="white"/>
</svg>
