<svg width="98" height="98" viewBox="0 0 98 98" fill="none" xmlns="http://www.w3.org/2000/svg">
<g clip-path="url(#clip0_888_1029)">
<path d="M94.4067 39.69H73.3367C73.3367 39.69 73.1733 39.69 73.01 39.5266L71.2133 35.1166C70.7233 33.81 69.4167 32.83 67.9467 32.83H52.5933C50.6333 32.83 49 34.4633 49 36.5866V60.4333H42.4667V63.7H49V66.4766C49 68.6 50.6333 70.2333 52.5933 70.2333H94.4067C96.3667 70.2333 98 68.6 98 66.4766V43.4466C98 41.4866 96.3667 39.69 94.4067 39.69ZM94.7333 58.8H71.8667C70.8867 58.8 70.2333 59.4533 70.2333 60.4333C70.2333 61.4133 70.8867 62.0666 71.8667 62.0666H94.7333V66.4766C94.7333 66.8033 94.57 66.9666 94.4067 66.9666H52.5933C52.43 66.9666 52.2667 66.8033 52.2667 66.4766C52.2667 64.19 52.2667 39.5266 52.2667 36.5866C52.2667 36.26 52.43 36.0966 52.5933 36.0966H67.9467C68.11 36.0966 68.11 36.26 68.2733 36.26L70.07 40.67C70.56 41.9766 71.8667 42.9566 73.3367 42.9566H94.4067C94.57 42.9566 94.7333 43.12 94.7333 43.4466V58.8Z" fill="white"/>
<path d="M24.5 50.6333H17.9667C16.9867 50.6333 16.3333 51.2866 16.3333 52.2666V66.9666C16.3333 67.9466 16.9867 68.6 17.9667 68.6H23.8467L12.4133 80.0333H1.63333C0.653333 80.0333 0 80.6866 0 81.6666V96.3666C0 97.3466 0.653333 98 1.63333 98H24.5C25.48 98 26.1333 97.3466 26.1333 96.3666V81.6666C26.1333 80.6866 25.48 80.0333 24.5 80.0333H16.9867L28.42 68.6H32.0133L44.7533 80.0333H35.9333C34.9533 80.0333 34.3 80.6866 34.3 81.6666V96.3666C34.3 97.3466 34.9533 98 35.9333 98H58.8C59.78 98 60.4333 97.3466 60.4333 96.3666V81.6666C60.4333 80.6866 59.78 80.0333 58.8 80.0333H49.6533L36.9133 68.6H40.8333C41.8133 68.6 42.4667 67.9466 42.4667 66.9666V63.7V60.4333V52.2666C42.4667 51.2866 41.8133 50.6333 40.8333 50.6333H27.7667H24.5ZM22.8667 83.3V94.7333H3.26667V83.3H22.8667ZM57.1667 83.3V94.7333H37.5667V83.3H57.1667ZM39.2 53.9C39.2 56.1866 39.2 63.21 39.2 65.3333H19.6V53.9C23.6833 53.9 34.9533 53.9 39.2 53.9Z" fill="#00A9BD"/>
<path d="M73.5 14.5367C73.5 14.21 73.3367 13.72 73.01 13.5567L59.9433 0.49C59.6167 0.163333 59.29 0 58.8 0H26.1333C25.1533 0 24.5 0.653333 24.5 1.63333V50.6333H27.7667V3.26667H57.1667V14.7C57.1667 15.68 57.82 16.3333 58.8 16.3333H70.2333V29.4C70.2333 31.5233 73.5 31.5233 73.5 29.4C73.5 29.2367 73.5 14.7 73.5 14.5367ZM60.4333 13.0667V5.55333L67.9467 13.0667H60.4333Z" fill="white"/>
<path d="M34.3 19.6H45.7333C47.8567 19.6 47.8567 16.3334 45.7333 16.3334H34.3C32.1767 16.3334 32.1767 19.6 34.3 19.6Z" fill="white"/>
<path d="M34.3 27.7667H55.5333C56.5133 27.7667 57.1667 27.1133 57.1667 26.1333C57.1667 25.1533 56.5133 24.5 55.5333 24.5H34.3C32.1767 24.5 32.1767 27.7667 34.3 27.7667Z" fill="white"/>
</g>
<defs>
<clipPath id="clip0_888_1029">
<rect width="98" height="98" fill="white"/>
</clipPath>
</defs>
</svg>
