<svg width="93" height="93" viewBox="0 0 93 93" fill="none" xmlns="http://www.w3.org/2000/svg">
<g clip-path="url(#clip0_889_1048)">
<path d="M91.7503 84.0101L89.8903 82.1501L86.7903 79.0501L77.6453 69.905C88.0303 55.18 84.6203 34.875 69.8953 24.335C55.1703 13.795 34.8653 17.36 24.3253 32.085C13.7853 46.81 17.3503 67.115 32.0753 77.655C43.3903 85.715 58.4253 85.715 69.7403 77.655L79.0403 86.8001L82.1403 89.9001L84.0003 91.7601C84.7753 92.5351 85.8603 93.0001 86.9453 93.0001C88.0303 93.0001 89.1153 92.5351 89.8903 91.7601L91.7503 89.9001C93.4553 88.1951 93.4553 85.5601 91.7503 84.0101ZM51.1403 80.6001C34.8653 80.6001 21.6903 67.425 21.6903 51.15C21.6903 34.875 34.8653 21.7 51.1403 21.7C67.4153 21.7 80.5903 34.875 80.5903 51.15C80.5903 67.425 67.4153 80.6001 51.1403 80.6001ZM72.3753 75.7951C73.6153 74.7101 74.7003 73.6251 75.7853 72.3851L77.9553 74.555L74.5453 77.965L72.3753 75.7951ZM89.5803 87.73L87.7203 89.59C87.5653 89.7451 87.2553 89.9001 86.9453 89.9001C86.6353 89.9001 86.3253 89.7451 86.1703 89.59L76.7153 80.1351L80.1253 76.7251L89.5803 86.1801C89.7353 86.3351 89.8903 86.6451 89.8903 86.955C89.8903 87.2651 89.7353 87.4201 89.5803 87.73Z" fill="#00A9BD"/>
<path d="M6.19023 86.8C4.48523 86.8 3.09023 85.405 3.09023 83.7V15.5H86.7902V78.895L89.8902 81.995V6.2C89.8902 2.79 87.1002 0 83.6902 0H6.19023C2.78023 0 -0.00976562 2.79 -0.00976562 6.2V83.7C-0.00976562 87.11 2.78023 89.9 6.19023 89.9H81.9852L78.8852 86.8H6.19023ZM3.09023 6.2C3.09023 4.495 4.48523 3.1 6.19023 3.1H83.6902C85.3952 3.1 86.7902 4.495 86.7902 6.2V12.4H3.09023V6.2Z" fill="white"/>
<path d="M45.5603 35.495L33.6253 53.32C32.2303 55.335 32.2303 57.815 33.3153 59.985C34.5553 62.155 36.7253 63.55 39.2053 63.55H63.0753C65.5553 63.55 67.8803 62.155 68.9653 59.985C70.0503 57.815 70.0503 55.335 68.6553 53.32L56.7203 35.495C54.7053 32.395 50.3653 31.62 47.2653 33.635C46.6453 34.255 46.0253 34.875 45.5603 35.495ZM54.0853 37.2L66.0203 55.025C66.7953 56.11 66.7953 57.35 66.1753 58.435C65.5553 59.675 64.3153 60.295 62.9203 60.295H39.2053C37.8103 60.295 36.5703 59.52 35.9503 58.435C35.3303 57.35 35.4853 55.955 36.1053 55.025L48.1953 37.2C49.2803 35.495 51.6053 35.185 53.3103 36.27C53.6203 36.58 53.9303 36.89 54.0853 37.2Z" fill="#00A9BD"/>
<path d="M7.74019 9.29995H9.29019C10.2202 9.29995 10.8402 8.67995 10.8402 7.74995C10.8402 6.81995 10.2202 6.19995 9.29019 6.19995H7.74019C6.81019 6.19995 6.19019 6.81995 6.19019 7.74995C6.19019 8.67995 6.81019 9.29995 7.74019 9.29995Z" fill="white"/>
<path d="M15.4902 9.29995H17.0402C17.9702 9.29995 18.5902 8.67995 18.5902 7.74995C18.5902 6.81995 17.9702 6.19995 17.0402 6.19995H15.4902C14.5602 6.19995 13.9402 6.81995 13.9402 7.74995C13.9402 8.67995 14.5602 9.29995 15.4902 9.29995Z" fill="white"/>
<path d="M23.2402 9.29995H24.7902C25.7202 9.29995 26.3402 8.67995 26.3402 7.74995C26.3402 6.81995 25.7202 6.19995 24.7902 6.19995H23.2402C22.3102 6.19995 21.6902 6.81995 21.6902 7.74995C21.6902 8.67995 22.3102 9.29995 23.2402 9.29995Z" fill="white"/>
<path d="M72.8403 9.29995H82.1403C83.0703 9.29995 83.6903 8.67995 83.6903 7.74995C83.6903 6.81995 83.0703 6.19995 82.1403 6.19995H72.8403C71.9103 6.19995 71.2903 6.81995 71.2903 7.74995C71.2903 8.67995 71.9103 9.29995 72.8403 9.29995Z" fill="white"/>
<path d="M57.6503 25.575C56.8753 25.42 55.9453 25.8851 55.7903 26.6601C55.6353 27.4351 56.1003 28.21 56.8753 28.52C69.2753 31.775 76.8703 44.33 73.6153 56.8851C70.3603 69.4401 57.8053 76.8801 45.4053 73.625C33.0053 70.3701 25.4103 57.815 28.6653 45.415C31.3003 35.03 40.6003 27.9 51.1403 27.9C52.0703 27.9 52.6903 27.28 52.6903 26.35C52.6903 25.42 52.0703 24.8 51.1403 24.8C36.5703 24.8 24.7903 36.58 24.7903 51.15C24.7903 65.7201 36.5703 77.5 51.1403 77.5C65.7103 77.5 77.4903 65.7201 77.4903 51.15C77.4903 39.06 69.4303 28.675 57.6503 25.575Z" fill="#00A9BD"/>
<path d="M49.5902 43.4V49.6C49.5902 50.53 50.2102 51.15 51.1402 51.15C52.0702 51.15 52.6902 50.53 52.6902 49.6V43.4C52.6902 42.47 52.0702 41.85 51.1402 41.85C50.2102 41.85 49.5902 42.47 49.5902 43.4Z" fill="#00A9BD"/>
<path d="M51.1402 54.25C50.2102 54.25 49.5902 55.025 49.5902 55.8C49.5902 56.73 50.2102 57.35 51.1402 57.35C52.0702 57.35 52.6902 56.73 52.6902 55.8C52.6902 54.87 52.0702 54.25 51.1402 54.25Z" fill="#00A9BD"/>
</g>
<defs>
<clipPath id="clip0_889_1048">
<rect width="93" height="93" fill="white" transform="translate(-0.00976562)"/>
</clipPath>
</defs>
</svg>
