<svg width="88" height="104" viewBox="0 0 88 104" fill="none" xmlns="http://www.w3.org/2000/svg">
<g clip-path="url(#clip0_888_1036)">
<path d="M9.51922 26.4746H31.3077C32.0481 26.4746 32.7885 25.8417 32.7885 24.9979C32.7885 24.1541 32.1538 23.5212 31.3077 23.5212H9.51922C8.77884 23.5212 8.03845 24.1541 8.03845 24.9979C8.14422 25.8417 8.77884 26.4746 9.51922 26.4746Z" fill="white"/>
<path d="M20.2019 73.5172H9.20193C8.46155 73.5172 7.72116 74.1501 7.72116 74.9939V93.9797C7.72116 94.4016 7.82693 94.718 8.14424 95.0345C8.46155 95.3509 8.77885 95.4564 9.20193 95.4564H20.2019C20.625 95.4564 20.9423 95.3509 21.2596 95.0345C21.5769 94.718 21.6827 94.4016 21.6827 93.9797V74.8884C21.6827 74.4665 21.5769 74.1501 21.2596 73.8336C20.9423 73.5172 20.5192 73.5172 20.2019 73.5172ZM10.6827 92.503V76.3651H18.7212V92.503H10.6827Z" fill="white"/>
<path d="M9.51922 42.6125H31.3077C32.0481 42.6125 32.7885 41.9797 32.7885 41.1359C32.7885 40.3975 32.1538 39.6592 31.3077 39.6592H9.51922C8.77884 39.6592 8.03845 40.292 8.03845 41.1359C8.14422 41.9797 8.77884 42.6125 9.51922 42.6125Z" fill="white"/>
<path d="M9.51922 34.5963H31.3077C32.0481 34.5963 32.7885 33.9634 32.7885 33.1196C32.7885 32.2758 32.1538 31.6429 31.3077 31.6429H9.51922C8.77884 31.6429 8.03845 32.2758 8.03845 33.1196C8.14422 33.9634 8.77884 34.5963 9.51922 34.5963Z" fill="white"/>
<path d="M67.5865 56.0081H56.6923C55.9519 56.0081 55.2115 56.6409 55.2115 57.4847V93.8742C55.2115 94.6125 55.8462 95.3509 56.6923 95.3509H67.6923C68.1154 95.3509 68.4327 95.2454 68.75 94.929C69.0673 94.6125 69.1731 94.2961 69.1731 93.8742V57.4847C69.0673 56.6409 68.4327 56.0081 67.5865 56.0081ZM66.2115 92.503H58.0673V58.8559H66.2115V92.503Z" fill="#00A9BD"/>
<path d="M76.7885 91.6593V13.501C76.7885 11.286 74.9904 9.38745 72.6635 9.38745H14.0673H11.2115V9.49293H4.125C1.79808 9.49293 0 11.286 0 13.501V99.8864C0 100.941 0.423077 101.996 1.16346 102.734C1.90385 103.473 2.96154 103.895 4.01923 103.895H72.6635C74.8846 103.895 76.7885 102.101 76.7885 99.781V94.4016H76.8942L76.7885 91.6593ZM73.9327 99.8864C73.9327 100.519 73.4038 101.047 72.6635 101.047H4.125C3.49039 101.047 2.96154 100.519 2.85577 99.8864V13.501C2.85577 13.1846 2.96154 12.8682 3.17308 12.6572C3.38462 12.4463 3.70192 12.3408 4.01923 12.3408H72.6635C72.9808 12.3408 73.2981 12.4463 73.5096 12.6572C73.7212 12.8682 73.8269 13.1846 73.8269 13.501V99.8864H73.9327Z" fill="white"/>
<path d="M86.8366 1.16024C86.0962 0.421907 85.0385 0 83.9808 0H15.3366C14.2789 0 13.2212 0.421907 12.4808 1.16024C11.7404 1.89858 11.3173 2.95335 11.3173 4.00811V9.28195H14.1731V4.00811C14.1731 3.37525 14.7019 2.84787 15.4423 2.84787H84.0866C84.7212 2.84787 85.3558 3.37525 85.3558 4.00811V90.3935C85.3558 90.7099 85.25 91.0264 85.0385 91.2373C84.827 91.4483 84.5096 91.5538 84.1923 91.5538H77.1058V94.4016H84.1923C86.4135 94.4016 88.3173 92.6085 88.3173 90.288V4.11359C88 2.95335 87.5769 2.00406 86.8366 1.16024Z" fill="white"/>
<path d="M53.9423 17.931C49.9231 17.931 46.0096 19.5132 43.1538 22.3611C39.7692 25.7363 38.1827 30.3773 38.8173 35.1237C39.4519 39.8702 42.2019 43.9838 46.3269 46.3043C50.4519 48.6247 55.4231 49.0466 59.8654 47.1481C64.2019 45.355 67.5865 41.5578 68.75 37.0223C70.0192 32.4868 68.9615 27.5294 66.1058 23.8377C63.1442 20.146 58.7019 17.931 53.9423 17.931ZM58.0673 44.8276C53.5192 46.4097 48.5481 45.2495 45.1635 41.8742C41.7788 38.499 40.6154 33.5416 42.2019 29.0061C43.7885 24.4706 47.8077 21.3063 52.4615 20.7789V33.1197C52.4615 33.5416 52.5673 33.858 52.8846 34.1744C53.2019 34.4909 53.5192 34.5963 53.9423 34.5963H66.3173C65.6827 39.2373 62.5096 43.2454 58.0673 44.8276ZM66.3173 31.7485H55.3173V20.7789C61.1346 21.5172 65.5769 25.9473 66.3173 31.7485Z" fill="#00A9BD"/>
<path d="M51.8269 67.2941H40.8269C40.0865 67.2941 39.3462 67.9269 39.3462 68.7707V93.8742C39.3462 94.2961 39.4519 94.6125 39.7692 94.929C40.0865 95.2454 40.4039 95.3509 40.8269 95.3509H51.8269C52.25 95.3509 52.5673 95.2454 52.8846 94.929C53.2019 94.6125 53.3077 94.2961 53.3077 93.8742V68.6653C53.2019 67.9269 52.5673 67.2941 51.8269 67.2941ZM50.3462 92.503H42.3077V70.1419H50.4519V92.503H50.3462Z" fill="white"/>
<path d="M35.9615 60.649H25.0673C24.6442 60.649 24.3269 60.7545 24.0096 61.071C23.6923 61.3874 23.5865 61.7038 23.5865 62.1257V93.8742C23.5865 94.2961 23.6923 94.6125 24.0096 94.929C24.3269 95.2454 24.6442 95.3509 25.0673 95.3509H35.9615C36.3846 95.3509 36.7019 95.2454 37.0192 94.929C37.3365 94.6125 37.4423 94.2961 37.4423 93.8742V62.0202C37.4423 61.2819 36.8077 60.649 35.9615 60.649ZM34.5865 92.503H26.4423V63.4969H34.5865V92.503Z" fill="#00A9BD"/>
</g>
<defs>
<clipPath id="clip0_888_1036">
<rect width="88" height="104" fill="white"/>
</clipPath>
</defs>
</svg>
