<svg width="99" height="98" viewBox="0 0 99 98" fill="none" xmlns="http://www.w3.org/2000/svg">
<g clip-path="url(#clip0_889_1082)">
<path d="M65.3902 45.7201L62.1902 44.9201C62.0902 44.6201 61.9902 44.3201 61.7902 44.0201L63.4902 41.2201C63.7902 40.7201 63.6902 40.0201 63.2902 39.6201L59.7902 36.1201C59.3902 35.7201 58.6902 35.6201 58.1902 35.9201L55.3902 37.6201C55.0902 37.5201 54.7902 37.3201 54.4902 37.2201L53.6902 34.0201C53.4902 33.4201 52.9902 33.0201 52.3902 33.0201H47.4902C46.8902 33.0201 46.3902 33.4201 46.1902 34.0201L45.3902 37.2201C45.0902 37.3201 44.7902 37.4201 44.4902 37.6201L41.6902 35.9201C41.1902 35.6201 40.4902 35.7201 40.0902 36.1201L36.6902 39.5201C36.2902 39.9201 36.1902 40.6201 36.4902 41.1201L38.1902 43.9201C38.0902 44.2201 37.8902 44.5201 37.7902 44.8201L34.5902 45.6201C33.9902 45.8201 33.5902 46.3201 33.5902 46.9201V51.8201C33.5902 52.4201 33.9902 52.9201 34.5902 53.1201L37.7902 53.9201C37.8902 54.2201 37.9902 54.5201 38.1902 54.8201L36.4902 57.6201C36.1902 58.1201 36.2902 58.8201 36.6902 59.2201L40.1902 62.7201C40.5902 63.1201 41.2902 63.2201 41.7902 62.9201L44.5902 61.2201C44.8902 61.3201 45.1902 61.5201 45.4902 61.6201L46.2902 64.8201C46.4902 65.4201 46.9902 65.8201 47.5902 65.8201H52.4902C53.0902 65.8201 53.5902 65.4201 53.7902 64.8201L54.5902 61.6201C54.8902 61.5201 55.1902 61.4201 55.4902 61.2201L58.2902 62.9201C58.7902 63.2201 59.4902 63.1201 59.8902 62.7201L63.3902 59.2201C63.7902 58.8201 63.8902 58.1201 63.5902 57.6201L61.8902 54.8201C61.9902 54.5201 62.0902 54.2201 62.2902 53.9201L65.4902 53.1201C66.0902 52.9201 66.4902 52.4201 66.4902 51.8201V46.9201C66.3902 46.4201 65.9902 45.8201 65.3902 45.7201ZM63.6902 50.8201L60.7902 51.5201C60.3902 51.6201 59.9902 52.0201 59.8902 52.4201C59.6902 53.0201 59.3902 53.6201 59.0902 54.2201C58.8902 54.6201 58.8902 55.1201 59.0902 55.5201L60.5902 58.1201L58.5902 60.1201L55.9902 58.6201C55.5902 58.4201 55.0902 58.4201 54.6902 58.6201C54.0902 58.9201 53.4902 59.2201 52.8902 59.3201C52.4902 59.4201 52.0902 59.8201 51.9902 60.2201L51.2902 63.1201H48.4902L47.7902 60.2201C47.6902 59.7201 47.2902 59.4201 46.8902 59.3201C46.2902 59.1201 45.6902 58.9201 45.0902 58.6201C44.6902 58.4201 44.1902 58.4201 43.7902 58.6201L41.1902 60.1201L39.1902 58.1201L40.6902 55.5201C40.8902 55.1201 40.8902 54.6201 40.6902 54.2201C40.3902 53.6201 40.0902 53.0201 39.8902 52.4201C39.7902 52.0201 39.3902 51.6201 38.9902 51.5201L36.0902 50.8201V48.0201L38.9902 47.3201C39.4902 47.2201 39.7902 46.8201 39.8902 46.4201C40.0902 45.8201 40.2902 45.2201 40.5902 44.6201C40.7902 44.2201 40.7902 43.7201 40.5902 43.3201L39.0902 40.7201L41.0902 38.7201L43.6902 40.2201C44.0902 40.4201 44.5902 40.4201 44.9902 40.2201C45.5902 39.9201 46.1902 39.6201 46.7902 39.5201C47.1902 39.4201 47.5902 39.0201 47.6902 38.6201L48.3902 35.7201H51.1902L51.8902 38.6201C51.9902 39.1201 52.3902 39.4201 52.7902 39.5201C53.3902 39.7201 53.9902 39.9201 54.5902 40.2201C54.9902 40.4201 55.4902 40.4201 55.8902 40.2201L58.4902 38.7201L60.4902 40.7201L58.9902 43.3201C58.7902 43.7201 58.7902 44.2201 58.9902 44.6201C59.2902 45.2201 59.5902 45.8201 59.6902 46.4201C59.7902 46.8201 60.1902 47.2201 60.5902 47.3201L63.4902 48.0201V50.8201H63.6902Z" fill="#00A9BD"/>
<path d="M40.4902 11.5202C40.2902 10.8202 39.5902 10.4202 38.7902 10.6202C27.7902 13.7202 18.5902 21.3202 13.4902 31.6202C13.1902 32.3202 13.3902 33.1202 14.0902 33.4202C14.2902 33.5202 14.4902 33.5202 14.6902 33.5202C15.1902 33.5202 15.6902 33.2202 15.8902 32.8202C20.5902 23.2202 29.2902 16.1202 39.4902 13.2202C40.2902 12.9202 40.6902 12.2202 40.4902 11.5202Z" fill="#00A9BD"/>
<path d="M85.7902 31.5202C80.7902 21.4202 71.7902 13.9202 61.0902 10.7202C60.3902 10.5202 59.5902 10.9202 59.3902 11.6202C59.1902 12.3202 59.5902 13.1202 60.2902 13.3202C70.2902 16.2202 78.6902 23.3202 83.3902 32.7202C83.5902 33.2202 84.0902 33.4202 84.5902 33.4202C84.7902 33.4202 84.9902 33.4202 85.1902 33.3202C85.8902 33.0202 86.1902 32.2202 85.7902 31.5202Z" fill="#00A9BD"/>
<path d="M36.4902 22.0202V29.2202C36.4902 29.9202 37.0902 30.5202 37.7902 30.5202C38.4902 30.5202 39.0902 29.9202 39.0902 29.2202V22.0202C39.0902 18.9202 41.4902 16.4202 44.5902 16.1202C46.0902 17.3202 47.8902 18.0202 49.8902 18.0202C51.8902 18.0202 53.7902 17.3202 55.2902 16.1202C58.3902 16.3202 60.7902 18.9202 60.7902 22.0202V29.2202C60.7902 29.9202 61.3902 30.5202 62.0902 30.5202C62.7902 30.5202 63.3902 29.9202 63.3902 29.2202V22.0202C63.3902 18.1202 60.7902 14.8202 57.2902 13.8202C57.9902 12.5202 58.4902 11.1202 58.4902 9.52017C58.4902 4.72017 54.6902 0.920166 49.9902 0.920166C45.2902 0.920166 41.4902 4.72017 41.4902 9.42017C41.4902 11.0202 41.8902 12.4202 42.6902 13.7202C39.0902 14.8202 36.4902 18.1202 36.4902 22.0202ZM49.9902 3.62017C53.1902 3.62017 55.8902 6.22017 55.8902 9.52017C55.8902 12.7202 53.2902 15.4202 49.9902 15.4202C48.4902 15.4202 47.0902 14.8202 46.0902 13.9202C44.8902 12.8202 44.1902 11.3202 44.1902 9.62017C44.0902 6.22017 46.7902 3.62017 49.9902 3.62017Z" fill="white"/>
<path d="M92.5901 47.4201C93.2901 46.1201 93.7901 44.7201 93.7901 43.1201C93.7901 38.4201 89.9901 34.6201 85.2901 34.6201C80.5901 34.6201 76.7901 38.4201 76.7901 43.1201C76.7901 44.7201 77.1901 46.1201 77.9901 47.4201C74.3901 48.5201 71.8901 51.7201 71.8901 55.6201V62.9201C71.8901 63.6201 72.4901 64.2201 73.1901 64.2201C73.8901 64.2201 74.4901 63.6201 74.4901 62.9201V55.7201C74.4901 52.6201 76.8901 50.1201 79.9901 49.8201C81.4901 51.0201 83.2901 51.7201 85.2901 51.7201C87.2901 51.7201 89.1901 51.0201 90.5901 49.8201C93.6901 50.0201 96.0901 52.6201 96.0901 55.7201V62.9201C96.0901 63.6201 96.6901 64.2201 97.3901 64.2201C98.0901 64.2201 98.6901 63.6201 98.6901 62.9201V55.7201C98.6901 51.8201 96.0901 48.5201 92.5901 47.4201ZM85.1901 49.0201C81.9901 49.0201 79.2901 46.4201 79.2901 43.1201C79.2901 39.9201 81.8901 37.2201 85.1901 37.2201C88.3901 37.2201 91.0901 39.8201 91.0901 43.1201C90.9901 46.4201 88.3901 49.0201 85.1901 49.0201Z" fill="white"/>
<path d="M85.1901 65.5201C84.4901 65.2201 83.6901 65.4201 83.3901 66.1201C79.3901 74.1201 72.7901 80.4201 64.5901 83.9201C63.8901 84.2201 63.5901 85.0201 63.8901 85.7201C64.0901 86.2201 64.5901 86.5201 65.0901 86.5201C65.2901 86.5201 65.4901 86.5201 65.5901 86.4201C74.2901 82.6201 81.4901 75.8201 85.6901 67.3201C86.1901 66.6201 85.8901 65.8201 85.1901 65.5201Z" fill="#00A9BD"/>
<path d="M49.9902 41.4202C45.5902 41.4202 41.9902 45.0202 41.9902 49.4202C41.9902 53.8202 45.5902 57.4202 49.9902 57.4202C54.3902 57.4202 58.0902 53.8202 58.0902 49.4202C58.0902 45.0202 54.3902 41.4202 49.9902 41.4202ZM49.9902 54.8202C46.9902 54.8202 44.5902 52.4202 44.5902 49.4202C44.5902 46.4202 46.9902 44.0202 49.9902 44.0202C52.9902 44.0202 55.3902 46.4202 55.3902 49.4202C55.3902 52.4202 52.9902 54.8202 49.9902 54.8202Z" fill="#00A9BD"/>
<path d="M35.1902 84.2201C26.7902 80.7201 19.9902 74.3201 15.8902 66.1201C15.5902 65.4201 14.7902 65.2201 14.0902 65.5201C13.3902 65.8201 13.1902 66.6201 13.4902 67.3201C17.7902 76.0201 25.1902 82.9201 34.0902 86.6201C34.2902 86.7201 34.3902 86.7201 34.5902 86.7201C35.0902 86.7201 35.5902 86.4201 35.7902 85.9201C36.1902 85.2201 35.8902 84.4201 35.1902 84.2201Z" fill="#00A9BD"/>
<path d="M21.5902 47.4201C22.2902 46.1201 22.7902 44.7201 22.7902 43.1201C22.7902 38.4201 18.9902 34.6201 14.2902 34.6201C9.59019 34.6201 5.79019 38.4201 5.79019 43.1201C5.79019 44.7201 6.19019 46.1201 6.99019 47.4201C3.29019 48.5201 0.690186 51.8201 0.690186 55.6201V62.9201C0.690186 63.6201 1.29019 64.2201 1.99019 64.2201C2.69019 64.2201 3.29019 63.6201 3.29019 62.9201V55.7201C3.29019 52.6201 5.69019 50.1201 8.79019 49.8201C10.2902 51.0201 12.0902 51.7201 14.0902 51.7201C16.0902 51.7201 17.9902 51.0201 19.4902 49.8201C22.5902 50.0201 24.9902 52.6201 24.9902 55.7201V62.9201C24.9902 63.6201 25.5902 64.2201 26.2902 64.2201C26.9902 64.2201 27.5902 63.6201 27.5902 62.9201V55.7201C27.6902 51.8201 25.0902 48.5201 21.5902 47.4201ZM14.1902 49.0201C10.9902 49.0201 8.29019 46.4201 8.29019 43.1201C8.29019 39.8201 10.8902 37.2201 14.1902 37.2201C17.3902 37.2201 20.0902 39.8201 20.0902 43.1201C20.0902 46.4201 17.3902 49.0201 14.1902 49.0201Z" fill="white"/>
<path d="M57.3902 81.1202C58.0902 79.8202 58.5902 78.4202 58.5902 76.8202C58.5902 72.1202 54.7902 68.3202 50.0902 68.3202C45.3902 68.3202 41.5902 72.1202 41.5902 76.8202C41.5902 78.4202 41.9902 79.8202 42.7902 81.1202C39.1902 82.2202 36.5902 85.4202 36.5902 89.3202V96.5202C36.5902 97.2202 37.1902 97.8202 37.8902 97.8202C38.5902 97.8202 39.1902 97.2202 39.1902 96.5202V89.3202C39.1902 86.2202 41.5902 83.7202 44.6902 83.4202C46.1902 84.6202 47.9902 85.3202 49.9902 85.3202C51.9902 85.3202 53.8902 84.6202 55.3902 83.4202C58.4902 83.6202 60.8902 86.2202 60.8902 89.3202V96.5202C60.8902 97.2202 61.4902 97.8202 62.1902 97.8202C62.8902 97.8202 63.4902 97.2202 63.4902 96.5202V89.3202C63.4902 85.5202 60.8902 82.2202 57.3902 81.1202ZM49.9902 82.7202C46.7902 82.7202 44.0902 80.1202 44.0902 76.8202C44.0902 73.6202 46.6902 70.9202 49.9902 70.9202C53.1902 70.9202 55.8902 73.5202 55.8902 76.8202C55.8902 80.1202 53.1902 82.7202 49.9902 82.7202Z" fill="white"/>
</g>
<defs>
<clipPath id="clip0_889_1082">
<rect width="98" height="97" fill="white" transform="translate(0.690186 0.920166)"/>
</clipPath>
</defs>
</svg>
