<svg width="83" height="93" viewBox="0 0 83 93" fill="none" xmlns="http://www.w3.org/2000/svg">
<g clip-path="url(#clip0_889_1182)">
<path d="M7.00001 46.8332C6.30001 46.8332 5.70001 47.4332 5.70001 48.1332C5.70001 48.8332 6.30001 49.4332 7.00001 49.4332H18.5C18.6 49.4332 18.7 49.4332 18.7 49.4332C19.4 49.3332 20 48.7332 19.9 48.0332C19.8 47.3332 19.2 46.7332 18.5 46.8332H7.00001Z" fill="#00A9BD"/>
<path d="M19.8 28.8331H8.40001C7.70001 28.8331 7.10001 29.4331 7.10001 30.1331C7.10001 30.8331 7.70001 31.4331 8.40001 31.4331H19.9C20 31.4331 20.1 31.4331 20.1 31.4331C20.8 31.3331 21.4 30.7331 21.3 30.0331C21.2 29.2331 20.5 28.7331 19.8 28.8331Z" fill="#00A9BD"/>
<path d="M10.9 39.0332C10.8 39.7332 11.4 40.4332 12.1 40.4332H23.6C23.7 40.4332 23.8 40.4332 23.8 40.4332C24.5 40.3332 25.1 39.7332 25 39.0332C24.9 38.3332 24.3 37.7332 23.6 37.8332H12.1C11.4 37.9332 10.9 38.4332 10.9 39.0332Z" fill="#00A9BD"/>
<path d="M81.9 61.2331C80.1 58.1331 76.2 57.1331 73.2 58.8331L54.8 69.6331C54.1 67.9331 52.6 66.6331 50.8 66.0331L32.1 59.8331L31.1 59.5331C22.6 56.7331 21.3 56.5331 12.8 62.5331C11.8 60.6331 9.49999 59.6331 7.39999 60.2331L3.59999 61.2331C2.39999 61.5331 1.29999 62.3331 0.699994 63.4331C0.0999936 64.5331 -0.100006 65.8331 0.199994 67.0331L6.19999 89.3331C6.49999 90.5331 7.29999 91.6331 8.39999 92.2331C9.09999 92.6331 9.99999 92.8331 10.8 92.8331C11.2 92.8331 11.6 92.7331 12 92.6331L15.8 91.6331C18.1 91.0331 19.6 88.7331 19.3 86.3331C22.9 84.7331 28.4 86.2331 33.7 87.6331C37.2 88.5331 40.5 89.4331 43.3 89.4331C44.8 89.5331 46.2 89.1331 47.5 88.4331L79.5 69.9331C82.6 68.2331 83.7 64.3331 81.9 61.2331ZM16.4 88.1331C16.1 88.6331 15.6 89.0331 15.1 89.1331L11.3 90.1331C10.1 90.4331 8.99999 89.7331 8.59999 88.6331L2.59999 66.3331C2.29999 65.2331 2.99999 64.0331 4.09999 63.7331L7.89999 62.7331C9.09999 62.4331 10.2 63.1331 10.5 64.2331L16.5 86.5331C16.7 87.0331 16.7 87.6331 16.4 88.1331ZM78.2 67.7331L46.2 86.2331C44 87.6331 39.1 86.3331 34.4 85.1331C28.8 83.6331 23 82.1331 18.6 83.8331L13.6 65.1331C21.9 59.2331 22.1 59.3331 30.3 62.0331L50 68.5331C51.2 68.8331 52.1 69.7331 52.6 70.9331C52.7 71.2331 52.7 71.5331 52.8 71.8331C53 72.7331 52.7 73.6331 52.1 74.3331C51.1 75.1331 49.7 75.4331 48.5 75.1331L31.3 69.3331C30.6 69.1331 29.8 69.4331 29.6 70.1331C29.4 70.8331 29.7 71.6331 30.4 71.8331L47.5 77.6331C48.1 77.8331 48.7 77.8331 49.3 77.8331C50.9 77.8331 52.5 77.2331 53.7 76.2331C54.8 75.2331 55.3 73.8331 55.3 72.4331L74.4 61.1331C75.3 60.6331 76.3 60.5331 77.2 60.7331C78.2 61.0331 79 61.6331 79.5 62.5331C80.7 64.3331 80 66.6331 78.2 67.7331Z" fill="white"/>
<path d="M48.9 42.5331C49.1 42.6331 49.3 42.7331 49.5 42.7331C50 42.7331 50.4 42.5331 50.6 42.0331L54 36.2331C54.1 36.0331 54.2 35.8331 54.2 35.5331V26.3331C54.1 25.7331 53.6 25.2331 53 25.1331C52.3 25.0331 51.6 25.6331 51.6 26.3331V35.1331L48.4 40.7331C48 41.3331 48.2 42.1331 48.9 42.5331Z" fill="#00A9BD"/>
<path d="M13.6 84.9332C13.4 84.0332 12.5 83.5332 11.6 83.8332C10.7 84.0332 10.2 84.9332 10.5 85.8332C10.7 86.7332 11.6 87.2332 12.5 87.0332C13.4 86.8332 13.8 85.8332 13.6 84.9332Z" fill="white"/>
<path d="M38.7 58.1332C43 60.8332 47.9 62.2332 53 62.2332H52.9C67.7 62.2332 79.7 50.2332 79.7 35.5332C79.7 30.5332 78.3 25.5332 75.6 21.3332L78.1 18.8332C79.3 17.6332 79.3 15.6332 78.1 14.4332L74.1 10.4332C72.9 9.23315 70.9 9.23315 69.7 10.4332L67.2 12.8332C64.7 11.2332 61.9 10.1332 59 9.43315V3.83315C59 2.13315 57.6 0.733154 55.8 0.733154H50C48.3 0.733154 46.9 2.13315 46.9 3.83315V9.43315C44 10.1332 41.3 11.2332 38.7 12.7332L36.2 10.2332C35 9.03315 33 9.03315 31.8 10.2332L27.8 14.2332C26.6 15.4332 26.6 17.4332 27.8 18.6332L30.3 21.1332C22.4 33.7332 26.2 50.2332 38.7 58.1332ZM71.4 12.2332C71.6 12.0332 71.9 12.0332 72.2 12.2332L76.3 16.3332C76.5 16.5332 76.5 16.8332 76.3 17.1332L74.1 19.3332C72.7 17.5332 71.1 15.9332 69.3 14.5332L71.4 12.2332ZM49.5 3.83315C49.5 3.53315 49.7 3.33315 50 3.33315H55.7C56 3.33315 56.2 3.53315 56.2 3.83315V8.93315C54 8.73315 51.8 8.73315 49.5 8.93315V3.83315ZM29.6 17.0332C29.4 16.8332 29.4 16.5332 29.6 16.2332L33.7 12.1332C33.9 11.9332 34.2 11.9332 34.5 12.1332L36.7 14.3332C34.9 15.7332 33.3 17.3332 31.9 19.1332L29.6 17.0332ZM52.9 11.3332C66.2 11.3332 77.1 22.1332 77.1 35.5332C77 48.8332 66.2 59.6332 52.9 59.7332C39.6 59.7332 28.7 48.9332 28.7 35.5332C28.7 22.1332 39.6 11.3332 52.9 11.3332Z" fill="#00A9BD"/>
<path d="M52.9 55.4332C63.9 55.4332 72.8 46.5332 72.8 35.5332C72.8 24.5332 63.9 15.6332 52.9 15.6332C41.9 15.6332 33 24.5332 33 35.5332C33 46.5332 41.9 55.4332 52.9 55.4332ZM52.9 18.2332C62.5 18.2332 70.2 26.0332 70.2 35.5332C70.2 45.1332 62.4 52.8332 52.9 52.8332C43.3 52.8332 35.6 45.0332 35.6 35.5332C35.6 25.9332 43.3 18.2332 52.9 18.2332Z" fill="#00A9BD"/>
</g>
<defs>
<clipPath id="clip0_889_1182">
<rect width="82.8" height="92.1" fill="white" transform="translate(0 0.733154)"/>
</clipPath>
</defs>
</svg>
