<svg width="97" height="97" viewBox="0 0 97 97" fill="none" xmlns="http://www.w3.org/2000/svg">
<g clip-path="url(#clip0_889_1161)">
<path fill-rule="evenodd" clip-rule="evenodd" d="M38.6903 88.6332C34.2903 87.6332 30.1903 85.9332 26.3903 83.5332C25.8903 83.2332 25.0903 83.3332 24.7903 83.9332C24.4903 84.4332 24.5903 85.2332 25.1903 85.5332C29.1903 88.0332 33.5903 89.8332 38.1903 90.9332C38.7903 91.0332 39.3903 90.6332 39.5903 90.0332C39.6903 89.4332 39.3903 88.8332 38.6903 88.6332Z" fill="white"/>
<path fill-rule="evenodd" clip-rule="evenodd" d="M6.79019 40.3332C7.39019 40.4332 7.99019 40.1332 8.19019 39.4332C9.19019 35.0332 10.8902 30.9332 13.2902 27.1332C13.5902 26.6332 13.4902 25.8332 12.8902 25.5332C12.3902 25.2332 11.5902 25.3332 11.2902 25.9332C8.79019 29.9332 6.99019 34.3332 5.89019 38.9332C5.79019 39.6332 6.19019 40.2332 6.79019 40.3332Z" fill="white"/>
<path fill-rule="evenodd" clip-rule="evenodd" d="M12.8902 71.9331C13.3902 71.6331 13.5902 70.9331 13.2902 70.3331C10.8902 66.5331 9.19019 62.3331 8.19019 58.0331C7.99019 57.4331 7.39019 57.0331 6.79019 57.1331C6.19019 57.2331 5.79019 57.9331 5.89019 58.5331C6.99019 63.1331 8.79019 67.5331 11.2902 71.5331C11.6902 72.1331 12.3902 72.3331 12.8902 71.9331Z" fill="white"/>
<path fill-rule="evenodd" clip-rule="evenodd" d="M26.3903 14.0331C30.1903 11.6331 34.3903 9.93311 38.6903 8.93311C39.2903 8.83311 39.6903 8.13311 39.5903 7.53311C39.4903 6.93311 38.7903 6.53311 38.1903 6.63311C33.5903 7.73311 29.1903 9.53311 25.1903 12.0331C24.5903 12.3331 24.4903 13.1331 24.7903 13.6331C25.1903 14.2331 25.8903 14.3331 26.3903 14.0331Z" fill="white"/>
<path fill-rule="evenodd" clip-rule="evenodd" d="M57.2902 8.93319C61.6902 9.93319 65.7902 11.6332 69.5902 14.0332C69.8902 14.2332 70.1902 14.2332 70.4902 14.2332C70.7902 14.2332 71.0902 13.9332 71.1902 13.7332C71.2902 13.5332 71.3902 13.1332 71.2902 12.8332C71.1902 12.5332 70.9902 12.2332 70.7902 12.1332C66.7902 9.63319 62.3902 7.83319 57.7902 6.73319C57.4902 6.63319 57.1902 6.73319 56.8902 6.83319C56.5902 6.93319 56.3902 7.23319 56.3902 7.53319C56.2902 7.83319 56.3902 8.13319 56.5902 8.43319C56.7902 8.73319 56.9902 8.83319 57.2902 8.93319Z" fill="white"/>
<path fill-rule="evenodd" clip-rule="evenodd" d="M83.1902 25.5332C82.6902 25.8332 82.4902 26.6332 82.7902 27.1332C85.1902 30.9332 86.8902 35.1332 87.8902 39.4332C87.9902 39.7332 88.1902 40.0332 88.3902 40.1332C88.6902 40.3332 88.9902 40.3332 89.2902 40.3332C89.5902 40.2332 89.8902 40.0332 89.9902 39.8332C90.1902 39.5332 90.1902 39.2332 90.0902 38.9332C88.9902 34.3332 87.1902 29.9332 84.6902 25.9332C84.3902 25.4332 83.6902 25.2332 83.1902 25.5332Z" fill="white"/>
<path fill-rule="evenodd" clip-rule="evenodd" d="M49.1902 12.5332C53.7902 11.6332 55.5902 5.83315 52.1902 2.43315C51.0902 1.33315 49.5902 0.733154 47.9902 0.733154C46.3902 0.733154 44.8902 1.33315 43.7902 2.53315C40.3902 5.93315 42.1902 11.6332 46.7902 12.6332L49.1902 12.5332ZM45.4902 4.13315C46.8902 2.73315 49.1902 2.73315 50.5902 4.13315C52.8902 6.43315 51.2902 10.3332 47.9902 10.3332C44.7902 10.3332 43.1902 6.43315 45.4902 4.13315Z" fill="#00A9BD"/>
<path fill-rule="evenodd" clip-rule="evenodd" d="M21.5903 73.5332C18.9903 71.8332 15.5903 72.3332 13.6903 74.7332C11.7903 77.1332 11.8903 80.5332 14.0903 82.7332C16.2903 84.9332 19.6903 85.0332 22.0903 83.1332C24.4903 81.2332 24.9903 77.7332 23.2903 75.2332L21.5903 73.5332ZM18.2903 82.1332C16.2903 82.1332 14.6903 80.5332 14.6903 78.5332C14.6903 75.3332 18.5903 73.6332 20.8903 75.9332C23.0903 78.2332 21.4903 82.1332 18.2903 82.1332Z" fill="#00A9BD"/>
<path fill-rule="evenodd" clip-rule="evenodd" d="M76.8903 47.6332V46.1332C76.8903 45.4332 76.5903 44.8332 76.0903 44.3332C75.5903 43.8332 74.9903 43.5332 74.2903 43.5332H70.1903C69.5903 41.1332 68.6903 38.7332 67.3903 36.6332L70.2903 33.7332C71.2903 32.7332 71.2903 31.1332 70.2903 30.1332L69.2903 29.1332L74.4903 23.9332L72.8903 22.2332L67.6903 27.4332L66.6903 26.4332C65.6903 25.4332 64.0903 25.4332 63.0903 26.4332L60.1903 29.3332C58.0903 28.0332 55.7903 27.0332 53.2903 26.5332V22.4332C53.2903 21.0332 52.1903 19.8332 50.6903 19.8332H49.1903V12.5332H46.8903V19.8332H45.3903C43.9903 19.8332 42.7903 20.9332 42.7903 22.4332V26.5332C40.3903 27.1332 37.9903 28.0332 35.8903 29.4332L32.9903 26.5332C31.9903 25.5332 30.3903 25.5332 29.3903 26.5332L28.3903 27.5332L23.1903 22.3332L21.4903 23.9332L26.6903 29.1332L25.6903 30.1332C24.6903 31.1332 24.6903 32.7332 25.6903 33.7332L28.5903 36.6332C27.2903 38.7332 26.2903 41.0332 25.7903 43.5332H21.6903C21.0903 43.5332 20.4903 43.7332 19.9903 44.2332C18.9903 45.1332 19.1903 46.3332 19.1903 47.6332H11.8903V49.9332H19.1903V51.4332C19.1903 52.8332 20.2903 54.0332 21.7903 54.0332H25.8903C26.4903 56.4332 27.3903 58.8332 28.7903 60.9332L25.6903 63.7332C24.6903 64.7332 24.6903 66.3332 25.6903 67.3332L26.6903 68.3332L21.4903 73.5332L23.1903 75.1332L28.3903 69.9332L29.3903 70.9332C30.3903 71.9332 31.9903 71.9332 32.9903 70.9332L35.8903 68.0332C37.9903 69.3332 40.2903 70.3332 42.7903 70.9332V75.0332C42.7903 76.4332 43.8903 77.6332 45.3903 77.6332H46.8903V84.9332H49.1903V77.6332H50.6903C52.0903 77.6332 53.2903 76.5332 53.2903 75.0332V70.9332C55.6903 70.3332 58.0903 69.4332 60.1903 68.0332L63.0903 70.9332C64.0903 71.9332 65.6903 71.9332 66.6903 70.9332L67.6903 69.9332L72.8903 75.1332L74.4903 73.4332L69.3903 68.3332L70.3903 67.3332C71.3903 66.3332 71.3903 64.7332 70.3903 63.7332L67.4903 60.8332C68.7903 58.7332 69.7903 56.4332 70.3903 53.9332H74.4903C75.8903 53.9332 77.0903 52.8332 77.0903 51.3332V49.8332H84.3903V47.5332H76.8903V47.6332ZM74.5903 51.4332C74.5903 51.5332 74.4903 51.6332 74.3903 51.6332H69.3903C68.7903 51.6332 68.2903 52.0332 68.1903 52.6332C67.6903 55.4332 66.5903 58.0332 64.9903 60.3332C64.6903 60.8332 64.6903 61.4332 65.0903 61.8332L68.6903 65.4332C68.7903 65.5332 68.7903 65.6332 68.6903 65.7332L64.9903 69.4332C64.8903 69.5332 64.7903 69.5332 64.6903 69.4332L61.0903 65.8332C60.6903 65.4332 59.9903 65.3332 59.5903 65.7332C57.2903 67.3332 54.6903 68.4332 51.8903 68.9332C51.2903 69.0332 50.8903 69.5332 50.8903 70.0332V75.0332C50.8903 75.1332 50.7903 75.2332 50.6903 75.2332H45.3903C45.2903 75.2332 45.1903 75.1332 45.1903 75.0332V70.0332C45.1903 69.4332 44.7903 68.9332 44.1903 68.8332C41.3903 68.3332 38.7903 67.2332 36.4903 65.6332C35.9903 65.3332 35.3903 65.3332 34.9903 65.7332L31.3903 69.3332C31.2903 69.4332 31.1903 69.4332 31.0903 69.3332L27.3903 65.7332C27.2903 65.6332 27.2903 65.5332 27.3903 65.4332L30.9903 61.8332C31.3903 61.4332 31.4903 60.7332 31.0903 60.3332C29.4903 58.0332 28.3903 55.4332 27.8903 52.6332C27.7903 52.0332 27.2903 51.6332 26.7903 51.6332H21.7903C21.6903 51.6332 21.5903 51.5332 21.5903 51.4332V46.1332C21.5903 46.0332 21.6903 45.9332 21.7903 45.9332H26.7903C27.3903 45.9332 27.8903 45.5332 27.9903 44.9332C28.4903 42.1332 29.5903 39.5332 31.1903 37.2332C31.4903 36.7332 31.4903 36.1332 31.0903 35.7332L27.4903 32.1332C27.3903 32.0332 27.3903 31.9332 27.4903 31.8332L31.1903 28.1332C31.2903 28.0332 31.3903 28.0332 31.4903 28.1332L34.9903 31.7332C35.3903 32.1332 36.0903 32.2332 36.4903 31.8332C38.7903 30.2332 41.3903 29.1332 44.1903 28.6332C44.7903 28.5332 45.1903 28.0332 45.1903 27.4332V22.4332C45.1903 22.3332 45.2903 22.2332 45.3903 22.2332H50.6903C50.7903 22.2332 50.8903 22.3332 50.8903 22.4332V27.4332C50.8903 28.0332 51.2903 28.5332 51.8903 28.6332C54.6903 29.1332 57.2903 30.2332 59.5903 31.8332C60.0903 32.1332 60.6903 32.1332 61.0903 31.7332L64.6903 28.1332C64.7903 28.0332 64.8903 28.0332 64.9903 28.1332L68.6903 31.8332C68.7903 31.9332 68.7903 32.0332 68.6903 32.1332L65.0903 35.7332C64.6903 36.1332 64.5903 36.8332 64.9903 37.2332C66.5903 39.5332 67.6903 42.1332 68.1903 44.9332C68.2903 45.5332 68.7903 45.9332 69.2903 45.9332H74.2903L74.4903 46.0332L74.5903 46.1332V51.4332Z" fill="white"/>
<path fill-rule="evenodd" clip-rule="evenodd" d="M46.8903 85.0331C43.8903 85.6331 41.7903 88.4331 42.0903 91.4331C42.3903 94.4331 44.9903 96.8331 47.9903 96.8331C50.9903 96.8331 53.5903 94.5331 53.8903 91.4331C54.1903 88.3331 52.0903 85.6331 49.0903 85.0331V84.9331L46.8903 85.0331ZM50.5903 93.4331C49.1903 94.8331 46.8903 94.8331 45.4903 93.4331C43.1903 91.1331 44.7903 87.2331 48.0903 87.2331C51.3903 87.2331 52.8903 91.1331 50.5903 93.4331Z" fill="#00A9BD"/>
<path fill-rule="evenodd" clip-rule="evenodd" d="M72.7902 75.2332C71.0902 77.7332 71.5902 81.2332 73.9902 83.1332C76.3902 85.0332 79.7902 84.9332 81.9902 82.7332C84.1902 80.5332 84.2902 77.1332 82.3902 74.7332C80.4902 72.3332 76.9902 71.8332 74.4902 73.5332L74.3902 73.4332L72.7902 75.2332ZM75.1902 75.9332C77.4902 73.6332 81.3902 75.3332 81.3902 78.5332C81.3902 80.5332 79.7902 82.1332 77.7902 82.1332C74.5902 82.1332 72.8902 78.2332 75.1902 75.9332Z" fill="#00A9BD"/>
<path fill-rule="evenodd" clip-rule="evenodd" d="M90.6902 42.8332C87.6902 42.5332 84.8902 44.6332 84.2902 47.6332H84.1902V49.9332H84.2902C84.8902 52.9332 87.6902 55.0332 90.6902 54.7332C93.7902 54.4332 96.0902 51.8332 96.0902 48.8332C96.0902 45.8332 93.6902 43.1332 90.6902 42.8332ZM92.6902 51.3332C90.3902 53.6332 86.4902 52.0332 86.4902 48.7332C86.4902 45.5332 90.3902 43.9332 92.6902 46.1332C94.0902 47.6332 94.0902 49.9332 92.6902 51.3332Z" fill="#00A9BD"/>
<path fill-rule="evenodd" clip-rule="evenodd" d="M74.4902 24.0332C77.0902 25.7332 80.4902 25.2332 82.3902 22.8332C84.2902 20.4332 84.1902 17.0332 81.9902 14.8332C79.7902 12.6332 76.3902 12.5332 73.9902 14.4332C71.5902 16.3332 71.0902 19.8332 72.7902 22.3332L74.4902 24.0332ZM77.7902 15.4332C79.7902 15.4332 81.3902 17.0332 81.3902 19.0332C81.3902 22.2332 77.4902 23.9332 75.1902 21.6332C72.8902 19.3332 74.5902 15.4332 77.7902 15.4332Z" fill="#00A9BD"/>
<path fill-rule="evenodd" clip-rule="evenodd" d="M23.1903 22.3332C24.8903 19.7332 24.3903 16.3332 21.9903 14.4332C19.5903 12.5332 16.1903 12.6332 13.9903 14.8332C11.7903 17.0332 11.6903 20.4332 13.5903 22.8332C15.4903 25.2332 18.9903 25.7332 21.4903 24.0332L23.1903 22.3332ZM20.7903 21.6332C18.4903 23.9332 14.5903 22.2332 14.5903 19.0332C14.5903 17.0332 16.1903 15.4332 18.1903 15.4332C21.4903 15.4332 23.0903 19.3332 20.7903 21.6332Z" fill="#00A9BD"/>
<path fill-rule="evenodd" clip-rule="evenodd" d="M11.7902 47.6332C11.1902 44.6332 8.39023 42.5332 5.39023 42.8332C2.29023 43.1332 -0.00976562 45.7332 -0.00976562 48.7332C-0.00976562 51.7332 2.29023 54.3332 5.39023 54.6332C8.49023 54.9332 11.1902 52.8332 11.7902 49.8332V47.6332ZM3.39023 51.3332C1.99023 49.9332 1.99023 47.6332 3.39023 46.2332C5.69023 43.9332 9.59023 45.5332 9.59023 48.8332C9.59023 52.1332 5.59023 53.6332 3.39023 51.3332Z" fill="#00A9BD"/>
<path fill-rule="evenodd" clip-rule="evenodd" d="M37.3902 59.4332C40.1902 62.2332 43.9902 63.8332 47.9902 63.8332C51.9902 63.8332 55.7902 62.2332 58.5902 59.4332C61.3902 56.6332 62.9902 52.8332 62.9902 48.8332C62.9902 44.8332 61.3902 41.0332 58.5902 38.2332C55.7902 35.3332 51.9902 33.7332 47.9902 33.7332C43.9902 33.7332 40.1902 35.3332 37.3902 38.1332C34.5902 40.9332 32.9902 44.8332 32.9902 48.7332C32.9902 52.7332 34.5902 56.6332 37.3902 59.4332ZM47.9902 36.1332C51.3902 36.1332 54.5902 37.4332 56.9902 39.8332C59.3902 42.2332 60.6902 45.4332 60.6902 48.8332C60.6902 53.9332 57.5902 58.6332 52.8902 60.5332C48.1902 62.5332 42.6902 61.4332 39.0902 57.7332C35.4902 54.1332 34.3902 48.6332 36.2902 43.9332C38.2902 39.1332 42.8902 36.1332 47.9902 36.1332Z" fill="#00A9BD"/>
<path fill-rule="evenodd" clip-rule="evenodd" d="M40.5902 49.6332L44.9902 54.0332C45.4902 54.5332 46.1902 54.5332 46.6902 54.0332L55.4902 45.2332C55.8902 44.7332 55.8902 44.0332 55.4902 43.6332C55.0902 43.1332 54.2902 43.1332 53.8902 43.6332L45.8902 51.6332L42.2902 48.0332C42.0902 47.8332 41.7902 47.6332 41.4902 47.6332C41.1902 47.6332 40.8902 47.7332 40.6902 47.9332C40.4902 48.1332 40.3902 48.4332 40.3902 48.7332C40.1902 49.1332 40.3902 49.4332 40.5902 49.6332Z" fill="#00A9BD"/>
<path fill-rule="evenodd" clip-rule="evenodd" d="M69.5902 83.5332C65.7902 85.9332 61.5902 87.6332 57.2902 88.6332C56.6902 88.7332 56.2902 89.4332 56.3902 90.0332C56.4902 90.6332 57.1902 91.0332 57.7902 90.9332C62.3902 89.8332 66.7902 88.0332 70.7902 85.5332C71.2902 85.2332 71.4902 84.4332 71.1902 83.9332C70.8902 83.3332 70.1902 83.2332 69.5902 83.5332Z" fill="white"/>
<path fill-rule="evenodd" clip-rule="evenodd" d="M89.2902 57.2331C88.6902 57.1331 87.9902 57.4331 87.8902 58.1331C86.8902 62.5331 85.1902 66.6331 82.7902 70.4331C82.5902 70.7331 82.5902 71.0331 82.5902 71.3331C82.6902 71.6331 82.8902 71.9331 83.0902 72.0331C83.3902 72.2331 83.6902 72.2331 83.9902 72.1331C84.2902 72.0331 84.5902 71.8331 84.6902 71.6331C87.1902 67.6331 88.9902 63.2331 90.0902 58.6331C90.2902 57.9331 89.8902 57.3331 89.2902 57.2331Z" fill="white"/>
</g>
<defs>
<clipPath id="clip0_889_1161">
<rect width="96.1" height="96.1" fill="white" transform="translate(-0.00976562 0.733154)"/>
</clipPath>
</defs>
</svg>
