<svg width="28" height="29" viewBox="0 0 28 29" fill="none" xmlns="http://www.w3.org/2000/svg">
<g clip-path="url(#clip0_776_4172)">
<path d="M14 28.4434C6.3 28.4434 0 22.1434 0 14.4434C0 6.74336 6.3 0.443359 14 0.443359C14.7 0.443359 15.1667 0.910026 15.1667 1.61003C15.1667 2.31003 14.7 2.77669 14 2.77669C7.58333 2.77669 2.33333 8.02669 2.33333 14.4434C2.33333 20.86 7.58333 26.11 14 26.11C20.4167 26.11 25.6667 20.86 25.6667 14.4434C25.6667 13.7434 26.1333 13.2767 26.8333 13.2767C27.5333 13.2767 28 13.7434 28 14.4434C28 22.1434 21.7 28.4434 14 28.4434ZM14 2.77669C13.65 2.77669 13.4167 2.66003 13.1833 2.42669C12.95 2.19336 12.8333 1.96003 12.8333 1.61003C12.8333 1.26003 12.95 1.02669 13.1833 0.793359C13.65 0.326693 14.4667 0.326693 14.8167 0.793359C15.05 1.02669 15.1667 1.26003 15.1667 1.61003C15.1667 1.96003 15.05 2.19336 14.8167 2.42669C14.5833 2.66003 14.35 2.77669 14 2.77669ZM24.7333 10.01C24.5 9.42669 24.7333 8.72669 25.3167 8.49336C25.9 8.26003 26.6 8.49336 26.8333 9.07669C27.0667 9.66003 26.8333 10.36 26.25 10.5934C26.1333 10.71 25.9 10.71 25.7833 10.71C25.4333 10.71 24.9667 10.4767 24.7333 10.01ZM22.2833 6.16003C21.8167 5.69336 21.8167 4.99336 22.2833 4.52669C22.75 4.06003 23.45 4.06003 23.9167 4.52669C24.3833 4.99336 24.3833 5.69336 23.9167 6.16003C23.6833 6.39336 23.45 6.51003 23.1 6.51003C22.75 6.51003 22.5167 6.39336 22.2833 6.16003ZM18.4333 3.71003C17.85 3.47669 17.5 2.77669 17.85 2.19336C18.2 1.61003 18.7833 1.26003 19.3667 1.61003C19.95 1.84336 20.3 2.54336 19.95 3.12669C19.8333 3.59336 19.3667 3.82669 18.9 3.82669C18.7833 3.71003 18.6667 3.71003 18.4333 3.71003ZM26.8333 15.61C26.4833 15.61 26.25 15.4934 26.0167 15.26C25.7833 15.0267 25.6667 14.7934 25.6667 14.4434C25.6667 14.0934 25.7833 13.86 26.0167 13.6267C26.4833 13.16 27.1833 13.16 27.65 13.6267C27.8833 13.86 28 14.0934 28 14.4434C28 14.7934 27.8833 15.0267 27.65 15.26C27.4167 15.4934 27.1833 15.61 26.8333 15.61ZM18.6667 17.9434C18.55 17.9434 18.3167 17.9434 18.2 17.8267L13.5333 15.4934C13.0667 15.26 12.8333 14.91 12.8333 14.4434V6.27669C12.8333 5.57669 13.3 5.11003 14 5.11003C14.7 5.11003 15.1667 5.57669 15.1667 6.27669V13.7434L19.1333 15.7267C19.7167 15.96 19.95 16.66 19.6 17.2434C19.4833 17.71 19.1333 17.9434 18.6667 17.9434Z" fill="white"/>
</g>
<defs>
<clipPath id="clip0_776_4172">
<rect width="28" height="28" fill="white" transform="translate(0 0.443359)"/>
</clipPath>
</defs>
</svg>
