<svg width="15" height="14" viewBox="0 0 15 14" fill="none" xmlns="http://www.w3.org/2000/svg">
<path d="M14.0267 2.75747L9.7848 6.99979L14.0267 11.2419C14.6576 11.8731 14.6576 12.8956 14.0267 13.5268C13.7114 13.842 13.2981 13.9998 12.885 13.9998C12.4712 13.9998 12.0578 13.8423 11.7428 13.5268L7.49997 9.28417L3.25748 13.5267C2.94226 13.842 2.5289 13.9997 2.11541 13.9997C1.70205 13.9997 1.28896 13.8422 0.973461 13.5267C0.342501 12.8958 0.342501 11.8733 0.973461 11.2419L5.21523 6.99975L0.97322 2.75747C0.34226 2.12652 0.34226 1.10382 0.97322 0.472857C1.60406 -0.157619 2.62616 -0.157619 3.25724 0.472857L7.49993 4.71518L11.7423 0.472857C12.3735 -0.157619 13.3957 -0.157619 14.0264 0.472857C14.6576 1.10382 14.6576 2.12652 14.0267 2.75747Z" fill="white"/>
</svg>
